<svg width="1192" height="765" viewBox="0 0 1192 765" fill="none" xmlns="http://www.w3.org/2000/svg">
<g clip-path="url(#clip0_1_2)">
<path d="M488.523 448.843C488.523 474.508 393.953 532.843 269.273 532.843C144.594 532.843 36.5234 474.508 36.5234 448.843C36.5234 442.424 47.1093 450.396 58.5234 444.843C91.753 428.651 170.988 440.587 260.919 439.921C263.693 439.896 266.478 439.883 269.273 439.883C393.953 439.883 488.523 423.179 488.523 448.843Z" fill="#3F3D56"/>
<path opacity="0.1" d="M488.523 448.843C488.523 474.508 393.953 532.843 269.273 532.843C144.594 532.843 36.5234 474.508 36.5234 448.843C36.5234 442.424 47.1093 450.396 58.5234 444.843C91.753 428.651 170.988 440.587 260.919 439.921C263.693 439.896 266.478 439.883 269.273 439.883C393.953 439.883 488.523 423.179 488.523 448.843Z" fill="black"/>
<path d="M488.023 448.363C488.023 474.028 386.953 494.843 262.273 494.843C137.594 494.843 36.5234 474.028 36.5234 448.363C36.5234 441.944 42.8318 435.839 54.2459 430.286C87.4754 414.093 163.988 402.587 253.919 401.921C256.693 401.896 259.478 401.883 262.273 401.883C386.953 401.883 488.023 422.699 488.023 448.363Z" fill="#3F3D56"/>
<path opacity="0.1" d="M256.603 402.873C247.014 418.506 234.01 431.766 218.567 441.657C203.123 451.549 185.641 457.816 167.43 459.988C149.22 462.16 130.753 460.182 113.416 454.201C96.0792 448.22 80.3211 438.392 67.3235 425.453C98.8235 412.563 171.353 403.403 256.603 402.873Z" fill="black"/>
<path d="M155.523 440.843C217.379 440.843 267.523 387.118 267.523 320.843C267.523 254.569 217.379 200.843 155.523 200.843C93.6675 200.843 43.5234 254.569 43.5234 320.843C43.5234 387.118 93.6675 440.843 155.523 440.843Z" fill="#3F3D56"/>
<path d="M277.372 134.914V163.044L262.926 179.771C262.926 179.771 256.844 177.49 256.844 162.284L254.563 140.236L277.372 134.914Z" fill="#FFB9B9"/>
<path d="M262.926 163.044C262.926 163.044 286.495 147.078 287.255 141.756C288.016 136.434 321.468 112.105 316.146 127.311C310.824 142.517 294.098 149.359 294.098 149.359C294.098 149.359 281.173 184.333 269.769 183.572C258.364 182.812 258.364 168.366 262.926 163.044Z" fill="#FFB9B9"/>
<path d="M249.241 334.109L246.96 347.795L259.125 344.753V334.109H249.241Z" fill="#FFB9B9"/>
<path d="M251.522 341.712C251.522 341.712 265.582 333.383 266.155 337.167C266.728 340.952 272.81 355.397 275.851 356.918C278.892 358.438 282.694 375.165 275.851 374.405C270.551 373.816 251.113 363.649 242.617 359.094C241.571 358.531 240.781 357.587 240.41 356.459C240.038 355.33 240.114 354.102 240.621 353.027C241.119 352.106 241.463 351.108 241.638 350.075C241.638 348.555 251.522 341.712 251.522 341.712Z" fill="#2F2E41"/>
<path d="M244.679 187.374C244.679 187.374 300.18 213.223 294.858 232.991C289.536 252.758 269.769 336.39 269.769 336.39C269.769 336.39 247.72 341.712 246.2 336.39C244.679 331.068 260.645 248.197 259.125 245.156C257.604 242.114 229.473 222.347 229.473 222.347L171.692 198.018L196.021 175.209L244.679 187.374Z" fill="#2F2E41"/>
<path d="M286.495 338.671L293.338 356.158L281.173 361.48L273.57 347.795L286.495 338.671Z" fill="#FFB9B9"/>
<path d="M245.439 62.6864C245.439 62.6864 238.597 71.8098 243.919 76.3716C249.241 80.9333 245.439 97.6596 245.439 97.6596L238.597 116.667L211.227 111.345V80.173L212.747 64.9672C212.747 64.9672 226.432 52.0423 227.953 42.1586C229.473 32.2748 245.439 62.6864 245.439 62.6864Z" fill="#FFB9B9"/>
<path opacity="0.1" d="M245.439 62.6864C245.439 62.6864 238.597 71.8098 243.919 76.3716C249.241 80.9333 245.439 97.6596 245.439 97.6596L238.597 116.667L211.227 111.345V80.173L212.747 64.9672C212.747 64.9672 226.432 52.0423 227.953 42.1586C229.473 32.2748 245.439 62.6864 245.439 62.6864Z" fill="black"/>
<path d="M199.822 181.291C199.822 181.291 235.556 220.826 235.556 222.347C235.556 223.867 254.563 255.039 254.563 255.039L291.817 337.911C291.817 337.911 277.372 357.678 271.289 356.158C265.207 354.637 221.871 266.444 221.871 266.444C221.871 266.444 214.268 246.676 193.74 242.114C173.212 237.553 157.246 221.587 164.849 203.34C172.452 185.093 199.822 181.291 199.822 181.291Z" fill="#2F2E41"/>
<path d="M245.439 68.0084C258.876 68.0084 269.769 57.1158 269.769 43.6791C269.769 30.2425 258.876 19.3499 245.439 19.3499C232.003 19.3499 221.11 30.2425 221.11 43.6791C221.11 57.1158 232.003 68.0084 245.439 68.0084Z" fill="#FFB9B9"/>
<path d="M244.679 83.2141C244.679 83.2141 241.638 100.701 238.597 102.221C235.556 103.742 233.275 109.064 226.432 101.461C219.59 93.8582 213.507 78.6524 213.507 78.6524L189.938 107.543L187.658 187.374C187.658 187.374 214.268 180.531 222.631 187.374C230.994 194.216 249.241 193.456 249.241 193.456L245.44 178.25L248.481 152.4L247.72 128.831L246.96 112.105L244.679 83.2141Z" fill="#F2F2F2"/>
<path d="M242.001 70.417C242.001 70.417 252.282 75.6113 253.042 78.6524C253.803 81.6936 267.488 87.7759 267.488 87.7759C267.488 87.7759 272.81 93.0979 272.81 96.1391C272.81 99.1802 254.563 134.153 254.563 134.153C254.563 134.153 250.761 157.722 252.282 162.284C253.803 166.846 249.241 184.333 249.241 184.333L258.364 194.977H250.001C250.001 194.977 240.878 190.415 240.878 188.134C240.878 185.853 242.398 169.887 243.159 163.044C243.919 156.202 243.919 131.873 242.398 123.509C240.878 115.146 241.638 93.0979 241.638 87.7758C241.638 82.4538 242.001 70.417 242.001 70.417Z" fill="#3F3D56"/>
<path d="M218.449 58.8724C218.449 58.8724 215.028 59.6452 205.144 62.6864C195.261 65.7275 180.055 70.2892 174.733 76.3716C170.997 80.8697 167.688 85.7057 164.849 90.817L167.89 145.558C167.89 145.558 161.808 156.962 162.568 163.044C163.328 169.127 169.411 169.887 164.849 182.812C160.287 195.737 151.164 207.141 159.527 208.662C167.89 210.182 189.939 204.86 199.822 207.901C209.706 210.943 221.11 196.497 221.11 196.497C221.11 196.497 205.905 198.018 208.185 191.935C210.466 185.853 235.556 117.427 230.234 102.221C224.912 87.0156 218.449 58.8724 218.449 58.8724Z" fill="#3F3D56"/>
<path d="M269.008 92.3376L272.81 95.3788C272.81 95.3788 283.454 133.393 280.413 137.195C277.372 140.996 253.042 149.359 251.522 144.037C250.001 138.715 269.008 92.3376 269.008 92.3376Z" fill="#3F3D56"/>
<path d="M156.486 118.948C156.486 118.948 145.081 151.64 145.081 160.764C145.081 169.887 146.602 223.107 146.602 223.107C146.602 223.107 147.362 245.916 163.328 236.792C179.294 227.669 163.328 221.587 163.328 221.587C163.328 221.587 164.089 161.524 170.171 153.161C176.253 144.798 178.534 132.633 178.534 132.633L156.486 118.948Z" fill="#FFB9B9"/>
<path d="M281.173 355.397C281.173 355.397 292.577 349.315 294.858 353.877C297.139 358.439 309.304 383.528 307.783 386.569C306.263 389.61 297.899 401.775 288.016 398.734C278.132 395.693 277.372 379.727 277.372 379.727L276.611 361.48L281.173 355.397Z" fill="#2F2E41"/>
<path d="M250.204 37.8024C248.528 38.5912 246.539 39.0626 245.486 40.5864C244.706 41.7155 244.628 43.1828 244.059 44.4316C243.438 45.6681 242.368 46.6212 241.068 47.0965C239.769 47.5718 238.336 47.5337 237.064 46.9898C236.753 45.4753 235.872 44.138 234.604 43.254C233.963 42.8326 233.204 42.6278 232.439 42.6699C231.673 42.7119 230.941 42.9985 230.35 43.4875C228.783 44.9815 229.338 47.5867 228.607 49.6246C227.92 51.0582 226.976 52.3533 225.82 53.445C224.156 55.365 222.831 57.6169 220.827 59.1788C218.823 60.7408 215.784 61.4177 213.793 59.8391C212.119 58.5118 211.772 56.0629 212.178 53.9655C212.585 51.868 213.593 49.9365 214.161 47.8771C216.009 41.1853 213.063 34.041 213.975 27.159C215.143 18.3406 222.638 11.3749 231.004 8.352C234.485 6.9343 238.297 6.53048 241.998 7.18718C245.824 8.04147 249.092 10.4773 252.756 11.8703C256.675 13.3601 260.936 13.6202 265.037 14.4911C269.137 15.362 273.357 17.0459 275.737 20.4973C277.397 22.9045 277.967 25.894 279.343 28.4742C280.926 31.4193 283.491 33.717 286.591 34.9684L282.257 34.7214C282.983 36.6563 284.168 38.3861 285.71 39.7623C283.678 40.1768 281.565 39.8975 279.71 38.969C279.743 39.86 279.959 40.7347 280.344 41.5389C280.729 42.3432 281.274 43.0601 281.947 43.6453C278.611 43.5448 275.094 43.3911 272.275 41.6043C270.895 40.7291 269.769 39.5101 268.47 38.5181C265.7 36.4035 262.265 35.3998 258.916 34.4386C257.157 33.9339 255.04 33.2321 253.45 34.3631C252.125 35.305 251.916 36.9962 250.204 37.8024Z" fill="#2F2E41"/>
<path d="M176.253 81.6935L164.849 90.817L149.643 125.79C149.643 125.79 170.931 142.517 176.253 140.236C181.575 137.955 190.699 97.6596 190.699 97.6596L176.253 81.6935Z" fill="#3F3D56"/>
<path d="M347.3 123.425L299.313 149.783C299.035 149.968 298.72 150.09 298.389 150.14C298.059 150.19 297.722 150.166 297.402 150.072C297.081 149.977 296.786 149.814 296.535 149.593C296.285 149.372 296.086 149.098 295.953 148.792L284.198 124.221C283.975 123.52 284.011 122.763 284.3 122.087C284.588 121.411 285.11 120.861 285.77 120.537L325.611 100.001C326.102 99.7061 326.684 99.6024 327.247 99.7099C327.809 99.8175 328.312 100.129 328.66 100.584L348.561 119.333C348.757 119.682 348.88 120.068 348.922 120.466C348.964 120.864 348.926 121.267 348.808 121.649C348.69 122.032 348.495 122.387 348.236 122.692C347.977 122.997 347.659 123.246 347.3 123.425V123.425Z" fill="#2F2E41"/>
<path d="M344.098 119.795L299.111 145.508L287.139 123.932L325.732 102.945L344.098 119.795Z" fill="#6C63FF"/>
<path d="M306.353 112.363C306.587 112.082 306.583 111.692 306.343 111.492C306.104 111.293 305.72 111.358 305.486 111.639C305.251 111.92 305.255 112.31 305.495 112.509C305.734 112.709 306.118 112.644 306.353 112.363Z" fill="#F2F2F2"/>
<path d="M322.911 134.317C323.067 134.129 323.065 133.87 322.905 133.737C322.745 133.603 322.489 133.647 322.333 133.834C322.177 134.022 322.18 134.281 322.339 134.415C322.499 134.548 322.755 134.504 322.911 134.317Z" fill="#F2F2F2"/>
<path d="M97.0385 439.681C97.0385 457.098 86.6859 463.179 73.9132 463.179C73.6174 463.179 73.3216 463.174 73.0278 463.168C72.4361 463.155 71.8487 463.128 71.2698 463.087C59.7423 462.272 50.788 455.878 50.788 439.681C50.788 422.922 72.2041 401.772 73.8175 400.203L73.8196 400.201C73.8813 400.139 73.9132 400.109 73.9132 400.109C73.9132 400.109 97.0385 422.266 97.0385 439.681Z" fill="#6C63FF"/>
<path d="M73.0704 460.514L81.5287 448.697L73.0491 461.812L73.0278 463.168C72.4361 463.155 71.8486 463.128 71.2697 463.087L72.1807 445.664L72.1743 445.528L72.1892 445.504L72.2765 443.857L63.7756 430.71L72.302 442.622L72.3233 442.971L73.0108 429.807L65.7337 416.221L73.1002 427.498L73.8174 400.203L73.8196 400.109V400.201L73.7004 421.723L80.9455 413.191L73.6706 423.577L73.479 435.364L80.2453 424.052L73.4513 437.099L73.3449 443.653L83.1633 427.907L73.3066 445.938L73.0704 460.514Z" fill="#3F3D56"/>
<path d="M420.038 403.681C420.038 421.098 409.686 427.179 396.913 427.179C396.617 427.179 396.322 427.174 396.028 427.168C395.436 427.155 394.849 427.128 394.27 427.087C382.742 426.272 373.788 419.878 373.788 403.681C373.788 386.922 395.204 365.772 396.817 364.203L396.82 364.201C396.881 364.139 396.913 364.109 396.913 364.109C396.913 364.109 420.038 386.266 420.038 403.681Z" fill="#6C63FF"/>
<path d="M396.07 424.514L404.529 412.697L396.049 425.812L396.028 427.168C395.436 427.155 394.849 427.128 394.27 427.087L395.181 409.664L395.174 409.528L395.189 409.504L395.277 407.857L386.776 394.71L395.302 406.622L395.323 406.971L396.011 393.807L388.734 380.221L396.1 391.498L396.817 364.203L396.82 364.109V364.201L396.7 385.723L403.945 377.191L396.671 387.577L396.479 399.364L403.245 388.052L396.451 401.099L396.345 407.653L406.163 391.907L396.307 409.938L396.07 424.514Z" fill="#3F3D56"/>
<path opacity="0.3" d="M579.201 369.648C596.7 369.648 610.886 355.462 610.886 337.963C610.886 320.463 596.7 306.277 579.201 306.277C561.701 306.277 547.515 320.463 547.515 337.963C547.515 355.462 561.701 369.648 579.201 369.648Z" fill="#6C63FF"/>
<path opacity="0.3" d="M706.999 369.648C724.498 369.648 738.685 355.462 738.685 337.963C738.685 320.463 724.498 306.277 706.999 306.277C689.5 306.277 675.313 320.463 675.313 337.963C675.313 355.462 689.5 369.648 706.999 369.648Z" fill="#6C63FF"/>
<path opacity="0.3" d="M834.797 369.648C852.297 369.648 866.483 355.462 866.483 337.963C866.483 320.463 852.297 306.277 834.797 306.277C817.298 306.277 803.112 320.463 803.112 337.963C803.112 355.462 817.298 369.648 834.797 369.648Z" fill="#6C63FF"/>
<path opacity="0.3" d="M621.976 393.413H535.369V401.862H621.976V393.413Z" fill="#6C63FF"/>
<path opacity="0.3" d="M750.831 393.413H664.224V401.862H750.831V393.413Z" fill="#6C63FF"/>
<path d="M879.685 393.413H793.078V401.862H879.685V393.413Z" fill="#6C63FF"/>
<path d="M1191.52 675.496C1191.52 702.602 1091.64 764.215 959.955 764.215C828.271 764.215 714.128 702.602 714.128 675.496C714.128 668.716 725.309 677.136 737.364 671.271C772.461 654.169 856.147 666.775 951.131 666.072C954.061 666.045 957.002 666.032 959.955 666.032C1091.64 666.032 1191.52 648.389 1191.52 675.496Z" fill="#3F3D56"/>
<path opacity="0.1" d="M1191.52 675.496C1191.52 702.602 1091.64 764.215 959.955 764.215C828.271 764.215 714.128 702.602 714.128 675.496C714.128 668.716 725.309 677.136 737.364 671.271C772.461 654.169 856.147 666.775 951.131 666.072C954.061 666.045 957.002 666.032 959.955 666.032C1091.64 666.032 1191.52 648.389 1191.52 675.496Z" fill="black"/>
<path d="M1191 674.989C1191 702.095 1084.25 724.08 952.562 724.08C820.877 724.08 714.128 702.095 714.128 674.989C714.128 668.209 720.791 661.76 732.846 655.896C767.943 638.794 848.754 626.64 943.738 625.937C946.668 625.91 949.609 625.897 952.562 625.897C1084.25 625.897 1191 647.882 1191 674.989Z" fill="#3F3D56"/>
<path d="M964.913 631.395C996.436 631.395 1021.99 602.414 1021.99 566.664C1021.99 530.914 996.436 501.933 964.913 501.933C933.391 501.933 907.837 530.914 907.837 566.664C907.837 602.414 933.391 631.395 964.913 631.395Z" fill="#36334A"/>
<path d="M989.987 449.541L904.208 452.181C904.208 452.181 816.208 534.768 878.893 557.203C878.893 557.203 968.213 561.055 986.688 546.539C986.688 546.539 1009.78 455.48 989.987 449.541ZM986.028 473.956L894.31 479.894C894.31 479.894 900.908 457.459 927.302 457.459C953.696 457.459 983.389 451.521 986.028 465.378C988.668 479.234 986.028 473.956 986.028 473.956Z" fill="#3F3D56"/>
<path d="M1077.75 501.669L964.913 497.71L991.307 386.196C991.307 386.196 1096.88 378.278 1094.24 405.332C1091.6 432.385 1077.75 501.669 1077.75 501.669Z" fill="#36334A"/>
<path d="M968.819 554.975C968.819 554.975 900.908 566.994 876.494 531.362C852.08 495.73 968.872 514.866 968.872 514.866L978.77 541.92L968.819 554.975Z" fill="#36334A"/>
<path d="M948.417 706.221C965.545 706.221 979.43 692.336 979.43 675.209C979.43 658.081 965.545 644.196 948.417 644.196C931.289 644.196 917.404 658.081 917.404 675.209C917.404 692.336 931.289 706.221 948.417 706.221Z" fill="#36334A"/>
<path d="M951.387 697.643C962.137 697.643 970.852 687.599 970.852 675.209C970.852 662.818 962.137 652.774 951.387 652.774C940.636 652.774 931.921 662.818 931.921 675.209C931.921 687.599 940.636 697.643 951.387 697.643Z" fill="#3F3D56"/>
<path d="M1118 382.897C1118 382.897 1092.26 368.38 1090.94 402.692L1069.17 562.375H1078.41L1103.48 391.475C1103.48 391.475 1116.02 393.454 1118 393.454C1119.98 393.454 1118 382.897 1118 382.897Z" fill="#3F3D56"/>
<path d="M1143.64 400.516C1143.4 401.363 1142.99 402.151 1142.43 402.825C1141.86 403.5 1141.16 404.046 1140.37 404.427C1139.57 404.808 1138.71 405.015 1137.83 405.034C1136.95 405.053 1136.08 404.884 1135.27 404.539L1105.41 391.775L1110.83 379.847L1140.25 393.248C1141.59 393.857 1142.67 394.924 1143.29 396.256C1143.91 397.589 1144.03 399.099 1143.64 400.516V400.516Z" fill="#36334A"/>
<path d="M962.274 551.158C962.274 551.158 914.765 545.879 901.568 591.408C888.371 636.938 889.691 671.909 878.474 669.27C867.256 666.631 843.502 657.393 843.502 657.393L845.481 671.25C845.481 671.25 887.052 692.365 893.65 669.93C900.248 647.495 904.208 565.014 941.819 566.994C979.43 568.973 986.029 565.014 986.029 565.014L962.274 551.158Z" fill="#3F3D56"/>
<path d="M871.875 529.383C871.875 529.383 834.924 534.002 820.407 561.055C805.89 588.109 798.632 636.938 798.632 636.938H812.489C812.489 636.938 820.407 539.94 861.977 545.219L871.875 529.383Z" fill="#3F3D56"/>
<path d="M846.801 680.487L788.075 644.196C788.075 644.196 784.775 630.999 822.387 625.72C822.387 625.72 893.496 650.589 886.645 659.93C879.793 669.27 856.699 683.787 846.801 680.487Z" fill="#36334A"/>
<path d="M955.831 471.901C957.639 473.871 990.916 505.531 990.916 505.531C990.916 505.531 987.609 527.629 952.005 530.372L892.665 534.942C892.665 534.942 881.448 576.104 868.113 589.258C854.777 602.412 860.897 603.145 855.892 609.557C850.888 615.968 857.912 617.686 850.315 618.309C842.718 618.932 827.021 609.747 826.85 602.642C826.68 595.537 831.112 591.467 833.081 589.658C835.051 587.85 840.046 570.555 843.041 566.897C846.036 563.24 857.372 519.245 857.372 519.245C857.372 519.245 868.688 497.961 884.375 496.263C900.062 494.565 917.515 486.935 917.515 486.935" fill="#2F2E41"/>
<path opacity="0.1" d="M955.831 471.901C957.639 473.871 990.916 505.531 990.916 505.531C990.916 505.531 987.609 527.629 952.005 530.372L892.665 534.942C892.665 534.942 881.448 576.104 868.113 589.258C854.777 602.412 860.897 603.145 855.892 609.557C850.888 615.968 857.912 617.686 850.315 618.309C842.718 618.932 827.021 609.747 826.85 602.642C826.68 595.537 831.112 591.467 833.081 589.658C835.051 587.85 840.046 570.555 843.041 566.897C846.036 563.24 857.372 519.245 857.372 519.245C857.372 519.245 868.688 497.961 884.375 496.263C900.062 494.565 917.515 486.935 917.515 486.935" fill="black"/>
<path d="M898.269 366.232C898.269 366.232 885.781 332.3 877.234 343.112C868.686 353.924 890.987 371.678 890.987 371.678L898.269 366.232Z" fill="#A0616A"/>
<path d="M964.053 383.946L956.943 380.937C956.943 380.937 943.892 389.757 943.032 392.621C942.173 395.485 944.035 394.482 938.908 397.002C933.782 399.522 919.777 405.62 917.916 406.622C916.054 407.625 894.976 370.332 900.017 364.978C900.017 364.978 890.582 368.379 886.286 367.09C886.286 367.09 897.009 419.078 898.641 426.123C900.273 433.168 904.081 433.999 911.183 434.257C918.286 434.516 961.415 421.862 961.415 421.862L964.053 383.946Z" fill="#575A89"/>
<path d="M852.808 607.381C852.808 607.381 852.448 614.756 853.679 615.604C854.911 616.452 862.52 634.397 850.8 636.128C839.08 637.86 832.645 635.607 829.811 636.559C826.977 637.512 780.261 633.658 780.62 626.283C780.98 618.907 804.338 620.834 804.338 620.834C804.338 620.834 827.475 609.903 831.807 603.084C836.139 596.266 852.808 607.381 852.808 607.381Z" fill="#2F2E41"/>
<path opacity="0.1" d="M852.808 607.381C852.808 607.381 852.448 614.756 853.679 615.604C854.911 616.452 862.52 634.397 850.8 636.128C839.08 637.86 832.645 635.607 829.811 636.559C826.977 637.512 780.261 633.658 780.62 626.283C780.98 618.907 804.338 620.834 804.338 620.834C804.338 620.834 827.475 609.903 831.807 603.084C836.139 596.266 852.808 607.381 852.808 607.381Z" fill="black"/>
<path d="M876.913 646.23C876.913 646.23 869.808 677.187 864.596 676.871C859.384 676.556 822.589 658.649 818.062 655.102C812.249 650.548 812.478 642.501 819.151 644.192C825.823 645.882 844.696 644.366 847.903 640.958L856.152 632.196L876.913 646.23Z" fill="#2F2E41"/>
<path d="M949.755 474.239C951.702 476.072 1010.92 526.308 1010.92 526.308C1010.92 526.308 1009.23 548.588 973.917 553.911L915.066 562.784C915.066 562.784 906.872 604.651 894.528 618.74C882.184 632.828 888.341 633.115 883.815 639.873C879.29 646.631 886.42 647.835 878.889 649.008C871.357 650.182 855.034 642.162 854.347 635.088C853.661 628.015 857.785 623.633 859.618 621.686C861.451 619.739 865.176 602.127 867.897 598.261C870.617 594.395 878.726 549.693 878.726 549.693C878.726 549.693 888.465 527.643 903.987 524.809C919.509 521.975 936.361 513.097 936.361 513.097" fill="#2F2E41"/>
<path d="M1004.27 365.406C1019.77 365.406 1032.34 352.835 1032.34 337.327C1032.34 321.819 1019.77 309.248 1004.27 309.248C988.757 309.248 976.186 321.819 976.186 337.327C976.186 352.835 988.757 365.406 1004.27 365.406Z" fill="#A0616A"/>
<path d="M1018.98 354.855C1018.98 354.855 1014.77 372.008 1021.19 380.801C1027.6 389.593 978.286 385.408 978.286 385.408C978.286 385.408 991.634 357.573 986.709 351.1C981.784 344.628 1018.98 354.855 1018.98 354.855Z" fill="#A0616A"/>
<path d="M955.949 381.826C949.992 388.154 952.022 424.037 952.022 424.037L955.828 456.083C955.828 456.083 951.274 461.896 952.763 464.216C954.251 466.536 956.685 468.827 951.989 469.915C947.292 471.003 936.467 472.749 939.932 477.846C941.063 479.291 942.275 480.67 943.561 481.979C944.665 483.147 945.978 484.503 947.467 486.014C950.95 489.531 955.38 493.858 960.294 498.42C961.686 499.721 963.113 501.034 964.575 502.358C983.325 519.319 1006.64 537.273 1011.46 528.656C1019.54 514.224 1025.15 512.162 1024.78 499.877C1024.41 487.591 1034.81 456.062 1034.81 456.062C1034.81 456.062 1046.9 402.253 1029.86 386.214L1027.2 381.953C1025.96 379.972 1024.13 378.43 1021.97 377.545C1019.81 376.661 1017.43 376.479 1015.16 377.024C1006.84 379.011 994.091 381.757 988.567 381.313C980.033 380.625 981.904 377.116 981.904 377.116C981.904 377.116 961.906 375.497 955.949 381.826Z" fill="#575A89"/>
<path d="M929.62 496.603C929.62 496.603 894.882 505.22 899.978 517.363C905.075 529.506 935.146 507.314 935.146 507.314L929.62 496.603Z" fill="#A0616A"/>
<path d="M1019.81 347.6C1019.11 346.762 1019.8 345.539 1020.4 344.635C1023.62 339.793 1024.24 332.904 1020.69 328.293C1019.29 326.576 1017.55 325.177 1015.56 324.19C1012.78 322.715 1009.74 321.783 1006.61 321.443C1004.95 321.419 1003.3 321.094 1001.75 320.485C1000.77 319.988 996.15 318.37 995.158 317.899C992.977 316.862 989.944 317.31 988.547 315.341C987.21 313.457 988.458 310.876 989.757 308.966C992.715 304.614 1000.2 301.007 1005.33 299.865C1009.23 298.998 1013.3 300.217 1016.91 301.919C1021.08 303.984 1025.03 306.456 1028.71 309.297C1033.76 313.041 1038.74 317.19 1041.77 322.699C1044.81 328.207 1045.54 335.381 1042.11 340.654C1041.4 341.752 1040.52 342.743 1039.85 343.87C1038.22 346.618 1037.93 349.942 1036.77 352.923C1035.92 355.101 1034.61 357.076 1032.94 358.719C1031.28 360.362 1029.28 361.637 1027.09 362.463C1023.58 363.761 1019.26 364.12 1017.19 367.237L1016.22 360.738C1015.97 359.919 1016 359.038 1016.32 358.242C1016.64 357.446 1017.22 356.783 1017.97 356.365L1022.94 352.175C1023.94 351.501 1024.69 350.53 1025.09 349.403C1026.17 344.914 1020.96 348.997 1019.81 347.6Z" fill="#2F2E41"/>
<path opacity="0.1" d="M970.002 471.263L947.467 486.014C951.935 490.533 957.972 496.38 964.575 502.358C970.83 498.991 977.209 495.345 982.915 491.683C1003.79 478.282 1021.7 444.634 1029.72 428.312C1037.74 411.989 1031.21 399.416 1031.21 399.416C1025.89 397.063 1020.27 395.481 1014.51 394.718C1004.06 393.142 970.002 471.263 970.002 471.263Z" fill="black"/>
<path opacity="0.1" d="M967.024 466.623L943.561 481.979C944.665 483.147 945.978 484.503 947.467 486.014C950.95 489.531 955.38 493.857 960.294 498.42C966.959 494.86 973.837 490.959 979.938 487.043C1000.82 473.642 1018.72 439.995 1026.74 423.672C1034.76 407.349 1013.18 413.204 1013.18 413.204C1013.18 413.204 1024.38 408.136 1013.92 406.56C1003.47 404.984 967.024 466.623 967.024 466.623Z" fill="black"/>
<path d="M1030.18 396.61C1030.18 396.61 1036.7 409.182 1028.68 425.505C1020.66 441.828 1002.76 475.475 981.885 488.876C961.007 502.276 931.136 515.476 931.136 515.476C931.136 515.476 928.303 499.954 923.52 498.206L968.971 468.456C968.971 468.456 1003.03 390.336 1013.48 391.912C1019.24 392.674 1024.86 394.256 1030.18 396.61Z" fill="#575A89"/>
<path d="M937.86 562.375V639.577H946.438V561.055L937.86 562.375Z" fill="#3F3D56"/>
<path d="M950.397 609.884C950.397 609.884 966.893 674.549 956.335 683.787C956.335 683.787 942.479 642.876 931.921 648.155L935.22 609.884H950.397Z" fill="#36334A"/>
<path d="M1078.41 469.337L992.627 471.976C992.627 471.976 916.745 545.879 979.43 568.314C979.43 568.314 1056.63 580.851 1075.11 566.334C1075.11 566.334 1098.2 475.275 1078.41 469.337ZM1074.45 493.751L982.729 499.69C982.729 499.69 989.328 477.255 1015.72 477.255C1042.12 477.255 1071.81 471.316 1074.45 485.173C1077.09 499.03 1074.45 493.751 1074.45 493.751V493.751Z" fill="#3F3D56"/>
<path d="M1058.94 706.221C1106.5 706.221 1145.05 662.499 1145.05 608.564C1145.05 554.63 1106.5 510.907 1058.94 510.907C1011.38 510.907 972.831 554.63 972.831 608.564C972.831 662.499 1011.38 706.221 1058.94 706.221Z" fill="#36334A"/>
<path d="M1062.9 681.147C1098.8 681.147 1127.9 648.651 1127.9 608.564C1127.9 568.478 1098.8 535.981 1062.9 535.981C1027 535.981 997.906 568.478 997.906 608.564C997.906 648.651 1027 681.147 1062.9 681.147Z" fill="#3F3D56"/>
<path d="M1079.73 607.574C1079.72 606.308 1079.6 605.045 1079.35 603.804L1127.9 579.531L1124.6 572.273L1075.56 596.163C1075.06 595.654 1074.52 595.198 1073.93 594.802L1073.97 594.81L1088.3 523.444L1075.62 523.156L1067.19 593.388L1068 593.557C1067.34 593.692 1066.71 593.909 1066.11 594.204L1023.7 550.669L1017.7 559.076L1061.28 599.164C1060.18 601.263 1059.53 603.562 1059.35 605.921L997.906 630.999L996.586 641.556L1060.63 614.622C1061.23 616.103 1062.07 617.471 1063.13 618.667L1043.44 685.766H1050.69L1067.23 621.398C1067.96 621.635 1068.73 621.757 1069.5 621.761C1070.99 621.747 1072.44 621.312 1073.69 620.504L1108.1 665.971L1118.66 658.712L1078.34 614.677C1079.27 612.424 1079.74 610.01 1079.73 607.574Z" fill="#36334A"/>
<path d="M853.545 369.202C871.044 369.202 885.23 355.016 885.23 337.517C885.23 320.017 871.044 305.831 853.545 305.831C836.045 305.831 821.859 320.017 821.859 337.517C821.859 355.016 836.045 369.202 853.545 369.202Z" fill="#6C63FF"/>
<path d="M1174.04 662.681C1174.04 680.098 1163.69 686.179 1150.91 686.179C1150.62 686.179 1150.32 686.174 1150.03 686.168C1149.44 686.155 1148.85 686.128 1148.27 686.087C1136.74 685.272 1127.79 678.878 1127.79 662.681C1127.79 645.922 1149.2 624.772 1150.82 623.203L1150.82 623.201C1150.88 623.139 1150.91 623.109 1150.91 623.109C1150.91 623.109 1174.04 645.266 1174.04 662.681Z" fill="#6C63FF"/>
<path d="M1150.07 683.514L1158.53 671.697L1150.05 684.812L1150.03 686.168C1149.44 686.155 1148.85 686.128 1148.27 686.087L1149.18 668.664L1149.17 668.528L1149.19 668.504L1149.28 666.857L1140.78 653.71L1149.3 665.622L1149.32 665.971L1150.01 652.807L1142.73 639.221L1150.1 650.498L1150.82 623.203L1150.82 623.109V623.201L1150.7 644.723L1157.95 636.191L1150.67 646.577L1150.48 658.364L1157.25 647.052L1150.45 660.099L1150.34 666.653L1160.16 650.906L1150.31 668.938L1150.07 683.514Z" fill="#3F3D56"/>
</g>
<defs>
<clipPath id="clip0_1_2">
<rect width="1191.52" height="764.215" fill="white"/>
</clipPath>
</defs>
</svg>
