<svg width="755" height="472" viewBox="0 0 755 472" fill="none" xmlns="http://www.w3.org/2000/svg">
<g clip-path="url(#clip0_1_4)">
<path d="M439.786 83.2081C453.936 83.2081 465.407 73.3481 465.407 61.1852C465.407 49.0223 453.936 39.1624 439.786 39.1624C425.636 39.1624 414.165 49.0223 414.165 61.1852C414.165 73.3481 425.636 83.2081 439.786 83.2081Z" fill="#F2F2F2"/>
<path d="M638.536 410.052C676.619 385.12 694.808 343.222 683.421 303.255C683.138 302.262 682.839 301.271 682.525 300.283C674.975 276.558 656.298 254.011 629.077 246.43C606.221 240.065 581.272 244.96 557.428 242.429C510.619 237.46 474.329 204.905 448.795 170.82C423.26 136.734 403.636 98.5808 369.707 70.4213C313.779 24.0052 222.547 14.0118 153.204 44.2252C83.8623 74.4387 39.692 141.47 41.5757 208.275C43.4596 275.08 89.5981 338.95 156.603 372.837C181.218 385.286 209.687 394.105 238.02 391.019C262.604 388.341 284.941 376.987 309.409 373.616C347.879 368.316 386.104 383.267 419.377 400.689C452.651 418.111 484.791 438.762 522.601 446.839C559.316 454.681 604.801 432.139 638.536 410.052Z" fill="#F2F2F2"/>
<path d="M583.82 45.6281C582.986 45.1497 582.141 44.696 581.306 44.2341C557.174 30.9678 531.309 20.1904 504.244 12.1245L497.969 86.5383H458.185V1.26189C455.681 0.816493 453.157 0.395844 450.634 -6.10352e-05V86.5383H403.356C377.329 86.5383 352.369 77.6512 333.965 61.832C315.561 46.0128 305.222 24.5574 305.222 2.18576V2.18569C302.689 2.65583 300.175 3.15896 297.661 3.69508V86.5383H259.154L253.176 15.5805C225.363 24.7492 198.958 36.8066 174.549 51.4842C174.127 51.7316 173.705 51.9873 173.292 52.2347C171.172 53.5132 169.08 54.8164 166.998 56.1361V340.025H280.485L278.479 316.147L267.444 185.045H489.669L478.634 316.147L476.628 340.025H588.858V48.4984C587.188 47.5251 585.509 46.5684 583.82 45.6281ZM297.661 163.393H265.621L259.701 93.0377H297.661V163.393ZM450.634 163.393H396.822V162C396.822 161.329 396.668 160.666 396.369 160.047C396.071 159.428 395.633 158.866 395.081 158.392C394.53 157.919 393.875 157.544 393.154 157.288C392.434 157.032 391.662 156.901 390.882 156.902H367.488C366.709 156.902 365.938 157.034 365.218 157.29C364.499 157.546 363.845 157.921 363.294 158.395C362.743 158.868 362.307 159.43 362.009 160.049C361.711 160.667 361.558 161.33 361.558 162V163.393H305.222V93.0377H450.634V163.393ZM458.185 163.393V93.0377H497.422L491.501 163.393H458.185Z" fill="#3F3D56"/>
<path d="M-3.05176e-05 358.204C8.3359 366.695 17.3522 374.673 26.9828 382.082L728.017 382.907C737.648 375.498 746.664 367.519 755 359.029L-3.05176e-05 358.204Z" fill="#3F3D56"/>
<path d="M475.394 281.746V352.435C475.395 353.335 475.812 354.199 476.553 354.836C477.294 355.473 478.299 355.831 479.347 355.832H601.215C602.263 355.831 603.268 355.473 604.009 354.836C604.75 354.199 605.167 353.335 605.167 352.435V281.746C605.165 280.846 604.748 279.983 604.007 279.347C603.266 278.711 602.262 278.353 601.215 278.352H479.347C478.299 278.353 477.296 278.711 476.555 279.347C475.814 279.983 475.397 280.846 475.394 281.746V281.746Z" fill="#3F3D56"/>
<path d="M478.253 282.625V351.562C478.254 352.044 478.477 352.505 478.873 352.845C479.269 353.186 479.806 353.377 480.365 353.378H600.2C600.76 353.377 601.297 353.186 601.693 352.845C602.089 352.505 602.312 352.044 602.313 351.562V282.625C602.313 282.143 602.09 281.681 601.694 281.34C601.298 280.999 600.761 280.807 600.2 280.806H480.365C479.805 280.807 479.268 280.999 478.872 281.34C478.476 281.681 478.253 282.143 478.253 282.625V282.625Z" fill="#3F3D56"/>
<path d="M472.845 366.221C473.069 366.461 473.352 366.655 473.675 366.788C473.998 366.921 474.352 366.989 474.71 366.988H605.203C605.559 366.987 605.912 366.919 606.234 366.786C606.556 366.654 606.84 366.462 607.064 366.224C607.289 365.986 607.449 365.707 607.533 365.409C607.617 365.111 607.623 364.801 607.55 364.5L605.524 356.23C605.44 355.893 605.259 355.579 604.998 355.317C604.737 355.055 604.404 354.853 604.029 354.73C603.757 354.639 603.468 354.592 603.177 354.592H476.728C476.436 354.592 476.147 354.639 475.876 354.73C475.501 354.853 475.168 355.055 474.906 355.317C474.645 355.579 474.465 355.893 474.381 356.23L472.355 364.5C472.283 364.8 472.29 365.111 472.374 365.408C472.459 365.706 472.62 365.983 472.845 366.221V366.221Z" fill="#2F2E41"/>
<path d="M598.699 358.155H601.782C602.04 358.155 602.25 357.974 602.25 357.752V356.484C602.25 356.262 602.04 356.082 601.782 356.082H598.699C598.441 356.082 598.231 356.262 598.231 356.484V357.752C598.231 357.974 598.441 358.155 598.699 358.155Z" fill="#3F3D56"/>
<path d="M590.661 358.155H593.743C594.002 358.155 594.212 357.974 594.212 357.752V356.484C594.212 356.262 594.002 356.082 593.743 356.082H590.661C590.402 356.082 590.193 356.262 590.193 356.484V357.752C590.193 357.974 590.402 358.155 590.661 358.155Z" fill="#3F3D56"/>
<path d="M582.623 358.155H585.705C585.964 358.155 586.174 357.974 586.174 357.752V356.484C586.174 356.262 585.964 356.082 585.705 356.082H582.623C582.364 356.082 582.154 356.262 582.154 356.484V357.752C582.154 357.974 582.364 358.155 582.623 358.155Z" fill="#3F3D56"/>
<path d="M574.585 358.155H577.667C577.926 358.155 578.135 357.974 578.135 357.752V356.484C578.135 356.262 577.926 356.082 577.667 356.082H574.585C574.326 356.082 574.116 356.262 574.116 356.484V357.752C574.116 357.974 574.326 358.155 574.585 358.155Z" fill="#3F3D56"/>
<path d="M566.547 358.155H569.629C569.888 358.155 570.097 357.974 570.097 357.752V356.484C570.097 356.262 569.888 356.082 569.629 356.082H566.547C566.288 356.082 566.078 356.262 566.078 356.484V357.752C566.078 357.974 566.288 358.155 566.547 358.155Z" fill="#3F3D56"/>
<path d="M558.508 358.155H561.591C561.849 358.155 562.059 357.974 562.059 357.752V356.484C562.059 356.262 561.849 356.082 561.591 356.082H558.508C558.25 356.082 558.04 356.262 558.04 356.484V357.752C558.04 357.974 558.25 358.155 558.508 358.155Z" fill="#3F3D56"/>
<path d="M550.47 358.155H553.552C553.811 358.155 554.021 357.974 554.021 357.752V356.484C554.021 356.262 553.811 356.082 553.552 356.082H550.47C550.211 356.082 550.002 356.262 550.002 356.484V357.752C550.002 357.974 550.211 358.155 550.47 358.155Z" fill="#3F3D56"/>
<path d="M542.432 358.155H545.514C545.773 358.155 545.983 357.974 545.983 357.752V356.484C545.983 356.262 545.773 356.082 545.514 356.082H542.432C542.173 356.082 541.964 356.262 541.964 356.484V357.752C541.964 357.974 542.173 358.155 542.432 358.155Z" fill="#3F3D56"/>
<path d="M534.394 358.155H537.476C537.735 358.155 537.944 357.974 537.944 357.752V356.484C537.944 356.262 537.735 356.082 537.476 356.082H534.394C534.135 356.082 533.925 356.262 533.925 356.484V357.752C533.925 357.974 534.135 358.155 534.394 358.155Z" fill="#3F3D56"/>
<path d="M526.356 358.155H529.438C529.696 358.155 529.906 357.974 529.906 357.752V356.484C529.906 356.262 529.696 356.082 529.438 356.082H526.356C526.097 356.082 525.887 356.262 525.887 356.484V357.752C525.887 357.974 526.097 358.155 526.356 358.155Z" fill="#3F3D56"/>
<path d="M518.317 358.155H521.4C521.658 358.155 521.868 357.974 521.868 357.752V356.484C521.868 356.262 521.658 356.082 521.4 356.082H518.317C518.059 356.082 517.849 356.262 517.849 356.484V357.752C517.849 357.974 518.059 358.155 518.317 358.155Z" fill="#3F3D56"/>
<path d="M510.279 358.155H513.361C513.62 358.155 513.83 357.974 513.83 357.752V356.484C513.83 356.262 513.62 356.082 513.361 356.082H510.279C510.02 356.082 509.811 356.262 509.811 356.484V357.752C509.811 357.974 510.02 358.155 510.279 358.155Z" fill="#3F3D56"/>
<path d="M502.241 358.155H505.323C505.582 358.155 505.792 357.974 505.792 357.752V356.484C505.792 356.262 505.582 356.082 505.323 356.082H502.241C501.982 356.082 501.772 356.262 501.772 356.484V357.752C501.772 357.974 501.982 358.155 502.241 358.155Z" fill="#3F3D56"/>
<path d="M494.203 358.155H497.285C497.544 358.155 497.753 357.974 497.753 357.752V356.484C497.753 356.262 497.544 356.082 497.285 356.082H494.203C493.944 356.082 493.734 356.262 493.734 356.484V357.752C493.734 357.974 493.944 358.155 494.203 358.155Z" fill="#3F3D56"/>
<path d="M486.165 358.155H489.247C489.505 358.155 489.715 357.974 489.715 357.752V356.484C489.715 356.262 489.505 356.082 489.247 356.082H486.165C485.906 356.082 485.696 356.262 485.696 356.484V357.752C485.696 357.974 485.906 358.155 486.165 358.155Z" fill="#3F3D56"/>
<path d="M478.126 358.155H481.208C481.467 358.155 481.677 357.974 481.677 357.752V356.484C481.677 356.262 481.467 356.082 481.208 356.082H478.126C477.868 356.082 477.658 356.262 477.658 356.484V357.752C477.658 357.974 477.868 358.155 478.126 358.155Z" fill="#3F3D56"/>
<path d="M598.794 361.609H601.877C602.135 361.609 602.345 361.429 602.345 361.207V359.939C602.345 359.717 602.135 359.536 601.877 359.536H598.794C598.536 359.536 598.326 359.717 598.326 359.939V361.207C598.326 361.429 598.536 361.609 598.794 361.609Z" fill="#3F3D56"/>
<path d="M590.756 361.609H593.838C594.097 361.609 594.307 361.429 594.307 361.207V359.939C594.307 359.717 594.097 359.536 593.838 359.536H590.756C590.497 359.536 590.288 359.717 590.288 359.939V361.207C590.288 361.429 590.497 361.609 590.756 361.609Z" fill="#3F3D56"/>
<path d="M582.718 361.609H585.8C586.059 361.609 586.269 361.429 586.269 361.207V359.939C586.269 359.717 586.059 359.536 585.8 359.536H582.718C582.459 359.536 582.249 359.717 582.249 359.939V361.207C582.249 361.429 582.459 361.609 582.718 361.609Z" fill="#3F3D56"/>
<path d="M574.68 361.609H577.762C578.021 361.609 578.23 361.429 578.23 361.207V359.939C578.23 359.717 578.021 359.536 577.762 359.536H574.68C574.421 359.536 574.211 359.717 574.211 359.939V361.207C574.211 361.429 574.421 361.609 574.68 361.609Z" fill="#3F3D56"/>
<path d="M566.642 361.609H569.724C569.982 361.609 570.192 361.429 570.192 361.207V359.939C570.192 359.717 569.982 359.536 569.724 359.536H566.642C566.383 359.536 566.173 359.717 566.173 359.939V361.207C566.173 361.429 566.383 361.609 566.642 361.609Z" fill="#3F3D56"/>
<path d="M558.603 361.609H561.686C561.944 361.609 562.154 361.429 562.154 361.207V359.939C562.154 359.717 561.944 359.536 561.686 359.536H558.603C558.345 359.536 558.135 359.717 558.135 359.939V361.207C558.135 361.429 558.345 361.609 558.603 361.609Z" fill="#3F3D56"/>
<path d="M550.565 361.609H553.647C553.906 361.609 554.116 361.429 554.116 361.207V359.939C554.116 359.717 553.906 359.536 553.647 359.536H550.565C550.306 359.536 550.097 359.717 550.097 359.939V361.207C550.097 361.429 550.306 361.609 550.565 361.609Z" fill="#3F3D56"/>
<path d="M542.527 361.609H545.609C545.868 361.609 546.078 361.429 546.078 361.207V359.939C546.078 359.717 545.868 359.536 545.609 359.536H542.527C542.268 359.536 542.058 359.717 542.058 359.939V361.207C542.058 361.429 542.268 361.609 542.527 361.609Z" fill="#3F3D56"/>
<path d="M534.489 361.609H537.571C537.83 361.609 538.039 361.429 538.039 361.207V359.939C538.039 359.717 537.83 359.536 537.571 359.536H534.489C534.23 359.536 534.02 359.717 534.02 359.939V361.207C534.02 361.429 534.23 361.609 534.489 361.609Z" fill="#3F3D56"/>
<path d="M526.451 361.609H529.533C529.791 361.609 530.001 361.429 530.001 361.207V359.939C530.001 359.717 529.791 359.536 529.533 359.536H526.451C526.192 359.536 525.982 359.717 525.982 359.939V361.207C525.982 361.429 526.192 361.609 526.451 361.609Z" fill="#3F3D56"/>
<path d="M518.412 361.609H521.494C521.753 361.609 521.963 361.429 521.963 361.207V359.939C521.963 359.717 521.753 359.536 521.494 359.536H518.412C518.154 359.536 517.944 359.717 517.944 359.939V361.207C517.944 361.429 518.154 361.609 518.412 361.609Z" fill="#3F3D56"/>
<path d="M510.374 361.609H513.456C513.715 361.609 513.925 361.429 513.925 361.207V359.939C513.925 359.717 513.715 359.536 513.456 359.536H510.374C510.115 359.536 509.906 359.717 509.906 359.939V361.207C509.906 361.429 510.115 361.609 510.374 361.609Z" fill="#3F3D56"/>
<path d="M502.336 361.609H505.418C505.677 361.609 505.887 361.429 505.887 361.207V359.939C505.887 359.717 505.677 359.536 505.418 359.536H502.336C502.077 359.536 501.867 359.717 501.867 359.939V361.207C501.867 361.429 502.077 361.609 502.336 361.609Z" fill="#3F3D56"/>
<path d="M494.298 361.609H497.38C497.639 361.609 497.848 361.429 497.848 361.207V359.939C497.848 359.717 497.639 359.536 497.38 359.536H494.298C494.039 359.536 493.829 359.717 493.829 359.939V361.207C493.829 361.429 494.039 361.609 494.298 361.609Z" fill="#3F3D56"/>
<path d="M486.259 361.609H489.342C489.6 361.609 489.81 361.429 489.81 361.207V359.939C489.81 359.717 489.6 359.536 489.342 359.536H486.259C486.001 359.536 485.791 359.717 485.791 359.939V361.207C485.791 361.429 486.001 361.609 486.259 361.609Z" fill="#3F3D56"/>
<path d="M478.221 361.609H481.303C481.562 361.609 481.772 361.429 481.772 361.207V359.939C481.772 359.717 481.562 359.536 481.303 359.536H478.221C477.963 359.536 477.753 359.717 477.753 359.939V361.207C477.753 361.429 477.963 361.609 478.221 361.609Z" fill="#3F3D56"/>
<path d="M532.077 365.755H563.293C563.552 365.755 563.762 365.575 563.762 365.352V364.085C563.762 363.862 563.552 363.682 563.293 363.682H532.077C531.819 363.682 531.609 363.862 531.609 364.085V365.352C531.609 365.575 531.819 365.755 532.077 365.755Z" fill="#3F3D56"/>
<path d="M499.005 295.887H496.276C495.449 295.887 494.778 296.464 494.778 297.175C494.778 297.886 495.449 298.463 496.276 298.463H499.005C499.832 298.463 500.503 297.886 500.503 297.175C500.503 296.464 499.832 295.887 499.005 295.887Z" fill="white"/>
<path d="M530.213 295.887H527.484C526.657 295.887 525.986 296.464 525.986 297.175C525.986 297.886 526.657 298.463 527.484 298.463H530.213C531.04 298.463 531.711 297.886 531.711 297.175C531.711 296.464 531.04 295.887 530.213 295.887Z" fill="white"/>
<path d="M539.055 295.887H536.326C535.499 295.887 534.828 296.464 534.828 297.175C534.828 297.886 535.499 298.463 536.326 298.463H539.055C539.882 298.463 540.553 297.886 540.553 297.175C540.553 296.464 539.882 295.887 539.055 295.887Z" fill="white"/>
<path d="M521.724 295.673H504.765C503.938 295.673 503.267 296.249 503.267 296.96C503.267 297.671 503.938 298.248 504.765 298.248H521.724C522.551 298.248 523.222 297.671 523.222 296.96C523.222 296.249 522.551 295.673 521.724 295.673Z" fill="white"/>
<path d="M563.334 295.673H546.375C545.548 295.673 544.877 296.249 544.877 296.96C544.877 297.671 545.548 298.248 546.375 298.248H563.334C564.162 298.248 564.832 297.671 564.832 296.96C564.832 296.249 564.162 295.673 563.334 295.673Z" fill="white"/>
<path d="M507.327 301.7H504.598C503.771 301.7 503.1 302.276 503.1 302.987C503.1 303.698 503.771 304.275 504.598 304.275H507.327C508.154 304.275 508.825 303.698 508.825 302.987C508.825 302.276 508.154 301.7 507.327 301.7Z" fill="white"/>
<path d="M538.535 301.7H535.806C534.979 301.7 534.308 302.276 534.308 302.987C534.308 303.698 534.979 304.275 535.806 304.275H538.535C539.362 304.275 540.033 303.698 540.033 302.987C540.033 302.276 539.362 301.7 538.535 301.7Z" fill="white"/>
<path d="M547.377 301.7H544.648C543.821 301.7 543.15 302.276 543.15 302.987C543.15 303.698 543.821 304.275 544.648 304.275H547.377C548.204 304.275 548.875 303.698 548.875 302.987C548.875 302.276 548.204 301.7 547.377 301.7Z" fill="white"/>
<path d="M530.046 301.485H513.087C512.26 301.485 511.589 302.061 511.589 302.772C511.589 303.484 512.26 304.06 513.087 304.06H530.046C530.873 304.06 531.544 303.484 531.544 302.772C531.544 302.061 530.873 301.485 530.046 301.485Z" fill="white"/>
<path d="M571.656 301.485H554.697C553.87 301.485 553.199 302.061 553.199 302.772C553.199 303.484 553.87 304.06 554.697 304.06H571.656C572.484 304.06 573.154 303.484 573.154 302.772C573.154 302.061 572.484 301.485 571.656 301.485Z" fill="white"/>
<path d="M515.649 307.512H512.92C512.093 307.512 511.422 308.088 511.422 308.799C511.422 309.51 512.093 310.087 512.92 310.087H515.649C516.476 310.087 517.147 309.51 517.147 308.799C517.147 308.088 516.476 307.512 515.649 307.512Z" fill="white"/>
<path d="M546.857 307.512H544.128C543.301 307.512 542.63 308.088 542.63 308.799C542.63 309.51 543.301 310.087 544.128 310.087H546.857C547.684 310.087 548.355 309.51 548.355 308.799C548.355 308.088 547.684 307.512 546.857 307.512Z" fill="white"/>
<path d="M555.699 307.512H552.97C552.143 307.512 551.472 308.088 551.472 308.799C551.472 309.51 552.143 310.087 552.97 310.087H555.699C556.526 310.087 557.197 309.51 557.197 308.799C557.197 308.088 556.526 307.512 555.699 307.512Z" fill="white"/>
<path d="M538.368 307.297H521.409C520.582 307.297 519.911 307.873 519.911 308.585C519.911 309.296 520.582 309.872 521.409 309.872H538.368C539.196 309.872 539.866 309.296 539.866 308.585C539.866 307.873 539.196 307.297 538.368 307.297Z" fill="white"/>
<path d="M579.979 307.297H563.019C562.192 307.297 561.521 307.873 561.521 308.585C561.521 309.296 562.192 309.872 563.019 309.872H579.979C580.806 309.872 581.476 309.296 581.476 308.585C581.476 307.873 580.806 307.297 579.979 307.297Z" fill="white"/>
<path d="M523.971 313.324H521.242C520.415 313.324 519.745 313.9 519.745 314.611C519.745 315.322 520.415 315.899 521.242 315.899H523.971C524.798 315.899 525.469 315.322 525.469 314.611C525.469 313.9 524.798 313.324 523.971 313.324Z" fill="white"/>
<path d="M555.179 313.324H552.45C551.623 313.324 550.952 313.9 550.952 314.611C550.952 315.322 551.623 315.899 552.45 315.899H555.179C556.006 315.899 556.677 315.322 556.677 314.611C556.677 313.9 556.006 313.324 555.179 313.324Z" fill="white"/>
<path d="M564.021 313.324H561.292C560.465 313.324 559.794 313.9 559.794 314.611C559.794 315.322 560.465 315.899 561.292 315.899H564.021C564.848 315.899 565.519 315.322 565.519 314.611C565.519 313.9 564.848 313.324 564.021 313.324Z" fill="white"/>
<path d="M546.69 313.109H529.731C528.904 313.109 528.233 313.686 528.233 314.397C528.233 315.108 528.904 315.684 529.731 315.684H546.69C547.518 315.684 548.188 315.108 548.188 314.397C548.188 313.686 547.518 313.109 546.69 313.109Z" fill="white"/>
<path d="M530.213 336.435H527.484C526.657 336.435 525.986 337.012 525.986 337.723C525.986 338.434 526.657 339.01 527.484 339.01H530.213C531.04 339.01 531.711 338.434 531.711 337.723C531.711 337.012 531.04 336.435 530.213 336.435Z" fill="white"/>
<path d="M539.055 336.435H536.326C535.499 336.435 534.828 337.012 534.828 337.723C534.828 338.434 535.499 339.01 536.326 339.01H539.055C539.882 339.01 540.553 338.434 540.553 337.723C540.553 337.012 539.882 336.435 539.055 336.435Z" fill="white"/>
<path d="M563.334 336.65H546.375C545.548 336.65 544.877 337.226 544.877 337.937C544.877 338.649 545.548 339.225 546.375 339.225H563.334C564.162 339.225 564.832 338.649 564.832 337.937C564.832 337.226 564.162 336.65 563.334 336.65Z" fill="white"/>
<path d="M499.005 336.435H496.276C495.449 336.435 494.778 337.012 494.778 337.723C494.778 338.434 495.449 339.01 496.276 339.01H499.005C499.832 339.01 500.503 338.434 500.503 337.723C500.503 337.012 499.832 336.435 499.005 336.435Z" fill="white"/>
<path d="M521.724 336.65H504.765C503.938 336.65 503.267 337.226 503.267 337.937C503.267 338.649 503.938 339.225 504.765 339.225H521.724C522.551 339.225 523.222 338.649 523.222 337.937C523.222 337.226 522.551 336.65 521.724 336.65Z" fill="white"/>
<path d="M507.327 330.623H504.598C503.771 330.623 503.1 331.2 503.1 331.911C503.1 332.622 503.771 333.198 504.598 333.198H507.327C508.154 333.198 508.825 332.622 508.825 331.911C508.825 331.2 508.154 330.623 507.327 330.623Z" fill="white"/>
<path d="M538.535 330.623H535.806C534.979 330.623 534.308 331.2 534.308 331.911C534.308 332.622 534.979 333.198 535.806 333.198H538.535C539.362 333.198 540.033 332.622 540.033 331.911C540.033 331.2 539.362 330.623 538.535 330.623Z" fill="white"/>
<path d="M547.377 330.623H544.648C543.821 330.623 543.15 331.2 543.15 331.911C543.15 332.622 543.821 333.198 544.648 333.198H547.377C548.204 333.198 548.875 332.622 548.875 331.911C548.875 331.2 548.204 330.623 547.377 330.623Z" fill="white"/>
<path d="M530.046 330.838H513.087C512.26 330.838 511.589 331.414 511.589 332.125C511.589 332.836 512.26 333.413 513.087 333.413H530.046C530.873 333.413 531.544 332.836 531.544 332.125C531.544 331.414 530.873 330.838 530.046 330.838Z" fill="white"/>
<path d="M515.649 324.811H512.92C512.093 324.811 511.422 325.387 511.422 326.099C511.422 326.81 512.093 327.386 512.92 327.386H515.649C516.476 327.386 517.147 326.81 517.147 326.099C517.147 325.387 516.476 324.811 515.649 324.811Z" fill="white"/>
<path d="M546.857 324.811H544.128C543.301 324.811 542.63 325.387 542.63 326.099C542.63 326.81 543.301 327.386 544.128 327.386H546.857C547.684 327.386 548.355 326.81 548.355 326.099C548.355 325.387 547.684 324.811 546.857 324.811Z" fill="white"/>
<path d="M555.699 324.811H552.97C552.143 324.811 551.472 325.387 551.472 326.099C551.472 326.81 552.143 327.386 552.97 327.386H555.699C556.526 327.386 557.197 326.81 557.197 326.099C557.197 325.387 556.526 324.811 555.699 324.811Z" fill="white"/>
<path d="M538.368 325.026H521.409C520.582 325.026 519.911 325.602 519.911 326.313C519.911 327.024 520.582 327.601 521.409 327.601H538.368C539.196 327.601 539.866 327.024 539.866 326.313C539.866 325.602 539.196 325.026 538.368 325.026Z" fill="white"/>
<path d="M523.971 318.999H521.242C520.415 318.999 519.745 319.575 519.745 320.286C519.745 320.998 520.415 321.574 521.242 321.574H523.971C524.798 321.574 525.469 320.998 525.469 320.286C525.469 319.575 524.798 318.999 523.971 318.999Z" fill="white"/>
<path d="M555.179 318.999H552.45C551.623 318.999 550.952 319.575 550.952 320.286C550.952 320.998 551.623 321.574 552.45 321.574H555.179C556.006 321.574 556.677 320.998 556.677 320.286C556.677 319.575 556.006 318.999 555.179 318.999Z" fill="white"/>
<path d="M564.021 318.999H561.292C560.465 318.999 559.794 319.575 559.794 320.286C559.794 320.998 560.465 321.574 561.292 321.574H564.021C564.848 321.574 565.519 320.998 565.519 320.286C565.519 319.575 564.848 318.999 564.021 318.999Z" fill="white"/>
<path d="M546.69 319.214H529.731C528.904 319.214 528.233 319.79 528.233 320.501C528.233 321.212 528.904 321.789 529.731 321.789H546.69C547.518 321.789 548.188 321.212 548.188 320.501C548.188 319.79 547.518 319.214 546.69 319.214Z" fill="white"/>
<path d="M183.938 278.355V362.947H252.882V278.355C252.883 277.747 252.657 277.154 252.238 276.664C251.818 276.174 251.227 275.813 250.55 275.633C250.232 275.543 249.898 275.498 249.562 275.501H187.267C186.831 275.501 186.398 275.574 185.994 275.717C185.591 275.86 185.224 276.07 184.915 276.335C184.605 276.6 184.36 276.915 184.192 277.262C184.025 277.608 183.938 277.98 183.938 278.355V278.355ZM210.844 307.421C210.862 305.754 211.645 304.16 213.023 302.986C214.402 301.812 216.263 301.153 218.204 301.153C220.144 301.153 222.006 301.812 223.384 302.986C224.762 304.16 225.545 305.754 225.563 307.421V317.236C225.554 318.909 224.774 320.51 223.395 321.689C222.015 322.868 220.149 323.53 218.204 323.53C216.258 323.53 214.392 322.868 213.013 321.689C211.634 320.51 210.854 318.909 210.844 317.236V307.421Z" fill="#2F2E41"/>
<path d="M183.727 360.242V368.399C183.728 368.822 183.924 369.227 184.27 369.526C184.617 369.826 185.087 369.996 185.579 369.999H251.241C251.733 369.997 252.204 369.828 252.552 369.528C252.899 369.228 253.093 368.822 253.093 368.399V360.242H183.727Z" fill="#3F3D56"/>
<path d="M75.4789 150.907V305.359C75.4807 307.328 76.3911 309.215 78.0103 310.607C79.6295 311.998 81.8251 312.781 84.1149 312.783H350.392C352.682 312.781 354.878 311.998 356.497 310.607C358.116 309.215 359.027 307.328 359.029 305.359V150.907C359.023 148.94 358.111 147.056 356.492 145.666C354.874 144.276 352.68 143.494 350.392 143.492H84.1149C81.827 143.494 79.6336 144.276 78.0149 145.666C76.3963 147.056 75.4843 148.94 75.4789 150.907Z" fill="#3F3D56"/>
<path d="M81.7256 152.828V303.454C81.7277 304.506 82.2147 305.514 83.0798 306.257C83.9449 307.001 85.1176 307.419 86.3411 307.421H348.176C349.399 307.419 350.572 307.001 351.437 306.257C352.302 305.514 352.789 304.506 352.791 303.454V152.828C352.791 151.776 352.305 150.766 351.44 150.02C350.575 149.275 349.401 148.855 348.176 148.853H86.3411C85.1161 148.855 83.9423 149.275 83.077 150.02C82.2117 150.766 81.7257 151.776 81.7256 152.828Z" fill="white"/>
<path d="M130.318 369.446C130.584 369.734 130.923 369.965 131.308 370.124C131.694 370.282 132.116 370.364 132.544 370.362H288.319C288.745 370.362 289.165 370.279 289.55 370.122C289.934 369.964 290.273 369.735 290.541 369.45C290.81 369.166 291.001 368.834 291.101 368.478C291.201 368.122 291.208 367.751 291.121 367.393L288.702 357.52C288.602 357.117 288.386 356.743 288.075 356.43C287.763 356.117 287.365 355.877 286.918 355.73C286.594 355.621 286.249 355.565 285.901 355.565H134.952C134.604 355.565 134.259 355.621 133.935 355.73C133.488 355.877 133.09 356.117 132.778 356.43C132.466 356.742 132.251 357.117 132.15 357.52L129.732 367.393C129.646 367.751 129.654 368.121 129.755 368.476C129.857 368.832 130.049 369.163 130.318 369.446Z" fill="#2F2E41"/>
<path d="M339.679 169.602H94.6807C94.4261 169.597 94.1838 169.507 94.0057 169.351C93.8276 169.194 93.7278 168.984 93.7278 168.765C93.7278 168.546 93.8276 168.336 94.0057 168.179C94.1838 168.023 94.4261 167.932 94.6807 167.927H339.679C339.933 167.932 340.175 168.023 340.354 168.179C340.532 168.336 340.631 168.546 340.631 168.765C340.631 168.984 340.532 169.194 340.354 169.351C340.175 169.507 339.933 169.597 339.679 169.602V169.602Z" fill="#3F3D56"/>
<path d="M111.358 163.651C114.511 163.651 117.068 161.405 117.068 158.634C117.068 155.863 114.511 153.617 111.358 153.617C108.205 153.617 105.648 155.863 105.648 158.634C105.648 161.405 108.205 163.651 111.358 163.651Z" fill="#3F3D56"/>
<path d="M131.083 163.651C134.236 163.651 136.793 161.405 136.793 158.634C136.793 155.863 134.236 153.617 131.083 153.617C127.929 153.617 125.373 155.863 125.373 158.634C125.373 161.405 127.929 163.651 131.083 163.651Z" fill="#3F3D56"/>
<path d="M150.807 163.651C153.961 163.651 156.517 161.405 156.517 158.634C156.517 155.863 153.961 153.617 150.807 153.617C147.654 153.617 145.098 155.863 145.098 158.634C145.098 161.405 147.654 163.651 150.807 163.651Z" fill="#3F3D56"/>
<path d="M327.801 154.858H313.791C313.514 154.863 313.251 154.962 313.057 155.132C312.864 155.302 312.755 155.531 312.755 155.769C312.755 156.007 312.864 156.236 313.057 156.406C313.251 156.576 313.514 156.675 313.791 156.68H327.801C328.08 156.677 328.345 156.579 328.541 156.409C328.737 156.238 328.846 156.008 328.846 155.769C328.846 155.529 328.737 155.3 328.541 155.129C328.345 154.958 328.08 154.861 327.801 154.858Z" fill="#3F3D56"/>
<path d="M327.801 158.28H313.791C313.514 158.286 313.25 158.384 313.057 158.554C312.863 158.725 312.754 158.954 312.754 159.192C312.754 159.43 312.863 159.659 313.057 159.829C313.25 160 313.514 160.098 313.791 160.103H327.801C328.08 160.1 328.346 160.003 328.543 159.832C328.739 159.662 328.849 159.432 328.849 159.192C328.849 158.952 328.739 158.722 328.543 158.551C328.346 158.381 328.08 158.283 327.801 158.28V158.28Z" fill="#3F3D56"/>
<path d="M327.801 161.703H313.791C313.514 161.709 313.251 161.807 313.057 161.978C312.864 162.148 312.755 162.377 312.755 162.615C312.755 162.853 312.864 163.082 313.057 163.252C313.251 163.422 313.514 163.521 313.791 163.526H327.801C328.08 163.523 328.345 163.425 328.541 163.255C328.737 163.084 328.846 162.854 328.846 162.615C328.846 162.375 328.737 162.145 328.541 161.975C328.345 161.804 328.08 161.707 327.801 161.703V161.703Z" fill="#3F3D56"/>
<path d="M665.546 363.822C665.969 364.88 666.771 365.795 667.837 366.437C668.903 367.079 670.178 367.414 671.479 367.394L696.899 366.832C698.21 366.81 699.478 366.424 700.512 365.731C701.546 365.039 702.292 364.077 702.638 362.991L706.236 329.926C707.512 330.423 708.901 330.669 710.302 330.645C711.519 330.618 712.718 330.386 713.831 329.962C714.944 329.537 715.948 328.928 716.787 328.17C717.626 327.412 718.283 326.519 718.721 325.542C719.158 324.566 719.368 323.525 719.337 322.479C719.307 321.432 719.037 320.402 718.543 319.445C718.049 318.489 717.341 317.625 716.458 316.904C715.576 316.183 714.537 315.618 713.401 315.242C712.265 314.866 711.054 314.686 709.837 314.712C709.277 314.711 708.718 314.761 708.171 314.861C707.575 314.307 706.852 313.867 706.046 313.568C705.241 313.27 704.371 313.119 703.494 313.127L664.392 313.995C664.067 314.005 663.744 314.039 663.427 314.098C662.569 314.235 661.756 314.529 661.042 314.959C660.327 315.389 659.728 315.946 659.285 316.592C658.842 317.238 658.565 317.958 658.473 318.703C658.381 319.449 658.476 320.203 658.751 320.914L665.546 363.822ZM706.973 327.681L709.533 319.802C709.824 318.892 709.831 317.932 709.553 317.019C709.677 317.019 709.786 316.968 709.911 316.968C711.666 316.937 713.364 317.505 714.632 318.548C715.9 319.591 716.636 321.024 716.677 322.533C716.718 324.042 716.061 325.503 714.851 326.596C713.641 327.689 711.976 328.325 710.221 328.364C709.086 328.395 707.964 328.159 706.973 327.681Z" fill="#2F2E41"/>
<path d="M663.427 314.097C664.26 318.192 673.626 321.07 684.888 320.57C695.245 320.16 703.712 317.034 705.264 313.329C704.69 313.183 704.093 313.115 703.494 313.127L664.392 313.995C664.067 314.005 663.744 314.039 663.427 314.097V314.097Z" fill="#3F3D56"/>
<path d="M686.952 345.653C687.004 345.642 687.053 345.623 687.097 345.598L692.618 342.492C692.684 342.455 692.739 342.404 692.777 342.343C692.815 342.283 692.835 342.216 692.835 342.147C692.835 342.079 692.815 342.011 692.777 341.951C692.739 341.891 692.685 341.84 692.618 341.802L686.88 338.572C686.827 338.542 686.768 338.521 686.706 338.511C686.644 338.501 686.581 338.501 686.519 338.512C686.457 338.523 686.398 338.544 686.346 338.575C686.294 338.605 686.249 338.644 686.214 338.69C686.18 338.735 686.156 338.786 686.144 338.839C686.132 338.892 686.133 338.947 686.146 339C686.159 339.054 686.184 339.104 686.22 339.149C686.256 339.193 686.301 339.232 686.354 339.261L691.479 342.147L686.572 344.908C686.477 344.961 686.407 345.042 686.375 345.136C686.342 345.229 686.35 345.329 686.395 345.419C686.441 345.508 686.522 345.581 686.624 345.623C686.726 345.666 686.842 345.677 686.952 345.653H686.952Z" fill="#6C63FF"/>
<path d="M678.233 345.998C678.326 345.978 678.409 345.935 678.473 345.874C678.537 345.812 678.578 345.736 678.591 345.655C678.604 345.573 678.588 345.49 678.546 345.417C678.504 345.343 678.437 345.282 678.354 345.241L673.265 342.733L678.184 339.593C678.234 339.561 678.277 339.52 678.309 339.474C678.342 339.427 678.363 339.376 678.372 339.322C678.381 339.269 678.378 339.214 678.363 339.162C678.347 339.109 678.32 339.06 678.283 339.016C678.245 338.973 678.198 338.936 678.144 338.909C678.09 338.881 678.03 338.862 677.968 338.854C677.905 338.847 677.842 338.849 677.781 338.863C677.72 338.876 677.662 338.899 677.612 338.931L672.105 342.447C672.041 342.488 671.99 342.542 671.956 342.604C671.923 342.666 671.908 342.734 671.912 342.803C671.917 342.871 671.941 342.937 671.983 342.995C672.025 343.053 672.083 343.102 672.153 343.136L677.877 345.956C677.985 346.01 678.112 346.025 678.233 345.998V345.998Z" fill="#6C63FF"/>
<path d="M278.954 310.824L279.162 311.388L279.173 311.407L285.435 327.769L292.637 346.625L306.189 382.06L306.32 387.564V387.583L307.327 431.862L304.536 437.865L307.678 447.707C307.678 447.707 306.233 432.83 298.483 441.373C294.093 446.229 288.959 451.197 284.745 455.854C290.886 457.99 297.125 459.922 303.463 461.65C304.832 462.026 306.211 462.384 307.59 462.741C307.886 462.817 308.181 462.892 308.477 462.967C329.486 468.308 351.206 471.309 373.104 471.897C374.242 471.925 375.359 471.944 376.443 471.962C376.826 471.972 377.198 471.981 377.57 471.981C378.796 471.991 380.011 472 381.237 472C383.711 472 386.174 471.969 388.626 471.906C406.774 471.466 424.817 469.369 442.449 465.649C442.328 459.392 442 452.081 441.529 444.271C441.31 440.442 436.396 436.293 436.1 432.284C435.892 429.273 440.303 426.441 440.073 423.383C438.585 404.556 436.724 411.783 435.345 398.45C435.202 397.143 435.071 395.891 434.951 394.696C434.064 386.134 433.451 380.78 433.451 380.78L439.34 348.874L448.59 298.78L447.878 297.773L447.079 297.435L398.291 276.678L395.642 270.844C394.871 269.164 393.531 267.72 391.797 266.699C390.063 265.678 388.013 265.126 385.911 265.114L353.773 265.001C352.105 264.995 350.459 265.33 348.972 265.98C347.486 266.63 346.2 267.575 345.224 268.737L336.521 279.096L278.954 310.824Z" fill="#3F3D56"/>
<path d="M313.6 374.175L306.32 387.564L301.351 396.71L292.802 435.184L288.522 439.088L284.855 425.265L246.474 432.59C245.216 426.578 246.137 432.794 245.36 426.198C245.579 426.01 245.809 425.821 246.039 425.633C246.652 425.144 247.166 424.683 247.155 424.241C246.718 401.49 248.031 362.771 258.999 339.314C260.717 335.484 262.982 331.853 265.742 328.503C265.961 328.249 266.169 327.995 266.377 327.741C271.434 321.653 274.631 315.66 279.162 311.398V311.388C279.191 311.369 279.216 311.347 279.239 311.322C279.256 311.315 279.27 311.306 279.283 311.294L310.414 297.105L311.75 329.36L312.702 352.544L313.6 374.175Z" fill="#3F3D56"/>
<path d="M425.854 377.978L434.946 394.701L438.12 400.525L446.667 438.995L450.933 442.89L454.608 429.07L456.335 428.766L487.481 423.221L496.559 448.003C498.605 445.073 499.411 441.625 498.841 438.243C498.271 434.861 496.359 431.751 493.429 429.441C492.81 428.959 492.293 428.489 492.308 428.045C492.824 401.286 490.92 352.424 473.724 332.314C468.262 325.931 464.985 319.575 460.217 315.134C460.202 315.121 460.202 315.109 460.188 315.109L448.585 298.779L447.877 297.777L447.08 297.434L425.854 377.978Z" fill="#3F3D56"/>
<path d="M370.77 257.14C394.384 257.14 413.526 240.685 413.526 220.388C413.526 200.09 394.384 183.636 370.77 183.636C347.157 183.636 328.014 200.09 328.014 220.388C328.014 240.685 347.157 257.14 370.77 257.14Z" fill="#F5F5F5"/>
<path d="M428.56 194.717C428.229 194.413 427.83 194.169 427.386 194C426.942 193.831 426.464 193.741 425.979 193.735L426.622 192.201C426.832 191.718 426.888 191.196 426.786 190.687C426.684 190.179 426.426 189.703 426.039 189.309C425.653 188.914 425.151 188.615 424.586 188.443C424.02 188.27 423.412 188.229 422.822 188.325L420.481 188.712L420.702 187.368C420.786 186.867 420.718 186.356 420.503 185.885C420.288 185.414 419.934 184.999 419.476 184.681C419.018 184.363 418.472 184.153 417.891 184.072C417.31 183.991 416.715 184.041 416.163 184.217C415.661 184.387 415.121 184.458 414.583 184.425C414.045 184.392 413.523 184.256 413.054 184.027C412.583 183.805 412.174 183.498 411.856 183.126C411.538 182.754 411.318 182.327 411.211 181.875L410.396 178.493L410.309 178.312C406.337 172.62 398.699 168.48 389.353 166.962C381.033 165.601 372.503 166.294 364.279 166.946C361.017 167.21 357.332 167.507 354.262 169.123C351.652 170.509 349.445 173.28 349.896 176.076C341.787 173.94 333.094 178.204 328.785 183.582C323.681 189.982 322.846 198 322.711 204.268C322.347 219.098 325.907 231.231 333.267 240.337C333.804 240.997 333.938 242.374 335.003 242.836L334.783 242.531C335.973 243.042 337.182 243.867 336.731 244.749C335.435 247.29 344.042 252.907 350.107 254.763C361.171 258.152 375.881 257.864 386.225 256.643L386.589 254.54C390.322 254.103 392.951 253.27 393.69 251.966C394.995 251.01 396.108 250.152 397.077 249.36L397.087 249.352C397.106 249.335 397.144 249.311 397.164 249.294C401.837 245.442 402.921 243.248 403.41 239.908C403.88 236.633 403.046 233.309 402.192 230.315C420.174 232.707 395.11 213.852 411.864 210.207C412.056 210.156 412.252 210.114 412.449 210.083C412.939 209.984 413.428 209.885 413.898 209.77C416.165 209.241 418.335 208.444 420.347 207.402C425.029 204.953 426.574 201.703 428.992 198.041C429.341 197.519 429.487 196.916 429.41 196.318C429.332 195.72 429.034 195.159 428.56 194.717V194.717Z" fill="#2F2E41"/>
<path d="M521.993 380.595C521.983 382.038 521.964 384.059 521.887 386.558C521.877 386.904 521.868 387.259 521.858 387.622C521.733 392.216 521.609 396.068 521.407 400.349C521.398 400.645 521.388 400.934 521.369 401.231C521.1 407.203 520.678 414.156 519.949 425.167C518.596 445.507 516.235 427.963 513.865 435.097C513.75 435.452 513.625 435.873 513.51 436.368C513.151 438.163 512.546 439.916 511.706 441.589C510.449 442.232 509.154 442.851 507.877 443.469C504.241 445.21 500.546 446.884 496.823 448.476C494.731 449.367 492.63 450.241 490.519 451.082C490.183 451.214 489.857 451.346 489.531 451.47C478.72 455.768 467.579 459.422 456.186 462.407C453.96 462.984 451.743 463.545 449.498 464.065C447.157 464.625 444.815 465.153 442.445 465.648C424.813 469.369 406.772 471.467 388.624 471.908C386.177 471.974 383.711 471.999 381.235 471.999C380.007 471.999 378.798 471.991 377.569 471.983C377.195 471.983 376.821 471.974 376.447 471.966C375.362 471.941 374.24 471.925 373.107 471.9C351.209 471.313 329.49 468.311 308.481 462.968L307.589 462.745C306.207 462.382 304.835 462.027 303.463 461.648C297.13 459.924 290.889 457.994 284.742 455.858C280.049 454.233 275.412 452.49 270.828 450.629C270.786 450.619 270.747 450.602 270.713 450.579C269.753 450.2 268.784 449.804 267.825 449.4C267.7 449.342 267.566 449.284 267.431 449.226C263.852 447.725 260.311 446.153 256.809 444.509C253.863 438.694 249.718 437.58 247.146 432.466C246.398 430.947 245.857 429.358 245.534 427.732C245.534 427.716 245.525 427.699 245.525 427.674C245.793 430.743 244.383 422.231 245.515 427.641C245.505 427.542 245.496 427.435 245.486 427.311C245.457 427.014 245.419 426.652 245.361 426.198C242.07 398.575 242.281 366.985 240.852 340.954C240.756 339.272 240.656 337.661 240.554 336.121C240.525 335.61 240.487 335.107 240.448 334.612C240.516 334.463 240.592 334.307 240.679 334.158C240.697 334.115 240.72 334.074 240.746 334.034C240.774 333.983 240.806 333.934 240.842 333.886C240.861 333.861 240.89 333.828 240.909 333.803C240.923 333.775 240.939 333.748 240.957 333.721C241.043 333.605 241.139 333.482 241.245 333.366C241.293 333.317 241.331 333.276 241.379 333.234C241.412 333.192 241.451 333.153 241.494 333.119C241.524 333.079 241.559 333.043 241.6 333.012C241.638 332.979 241.677 332.937 241.725 332.896C241.745 332.87 241.771 332.848 241.801 332.83C241.877 332.755 241.961 332.686 242.051 332.624C242.393 332.353 242.759 332.105 243.145 331.882C243.279 331.807 243.423 331.733 243.557 331.651C244.524 331.153 245.543 330.734 246.599 330.397C246.964 330.282 247.328 330.174 247.722 330.059C247.866 330.026 248 329.985 248.144 329.943C248.355 329.886 248.566 329.828 248.787 329.787C249.881 329.506 251.061 329.267 252.337 329.044C252.491 329.02 252.654 328.995 252.817 328.962C253.047 328.921 253.287 328.888 253.527 328.855C253.853 328.805 254.189 328.756 254.525 328.706C257.375 328.319 260.609 328.03 264.178 327.84C264.514 327.824 264.85 327.807 265.186 327.791C265.579 327.774 265.973 327.758 266.376 327.741C266.712 327.725 267.057 327.716 267.402 327.708C267.738 327.692 268.084 327.683 268.439 327.675C269.408 327.65 270.406 327.626 271.423 327.609C274.321 327.56 277.372 327.576 280.577 327.634C282.065 327.667 283.581 327.7 285.135 327.758C285.241 327.758 285.337 327.766 285.433 327.766C286.786 327.807 288.148 327.857 289.549 327.923C290.528 327.964 291.516 328.005 292.504 328.055C293.435 328.104 294.376 328.154 295.326 328.211C296.064 328.244 296.803 328.294 297.552 328.335C298.185 328.376 298.818 328.418 299.452 328.451L300.315 328.5C300.785 328.533 301.256 328.558 301.735 328.599C302.791 328.673 303.846 328.747 304.921 328.822C305.986 328.904 307.071 328.987 308.155 329.069C309.239 329.152 310.333 329.242 311.427 329.333C311.542 329.341 311.648 329.35 311.753 329.358C312.751 329.449 313.749 329.531 314.757 329.622C314.987 329.638 315.227 329.655 315.457 329.679C316.418 329.762 317.397 329.86 318.366 329.948C318.664 329.976 318.96 330.002 319.258 330.03C320.018 330.102 320.766 330.163 321.531 330.24C322.539 330.339 323.565 330.43 324.563 330.545C325.341 330.62 326.118 330.694 326.895 330.776C328.114 330.9 329.351 331.032 330.589 331.172C331.059 331.222 331.53 331.271 332 331.329C335.531 331.708 339.101 332.129 342.728 332.566C348.226 333.234 353.811 333.96 359.434 334.744C365.066 335.527 370.731 336.355 376.427 337.226C377.867 337.449 379.306 337.672 380.755 337.903C381.408 338.01 382.06 338.117 382.713 338.224C383.826 338.398 384.939 338.579 386.052 338.76C387.165 338.942 388.278 339.123 389.391 339.313C390.715 339.536 392.049 339.758 393.373 339.981C402.096 341.466 410.77 343.049 419.233 344.707C420.625 344.979 422.016 345.26 423.398 345.532C426.161 346.085 428.899 346.646 431.612 347.215C432.36 347.363 433.099 347.52 433.838 347.677C435.68 348.073 437.523 348.468 439.336 348.873L439.653 348.947C440.987 349.227 442.292 349.516 443.597 349.813C446.677 350.506 449.706 351.207 452.684 351.916C454.66 352.386 456.615 352.862 458.546 353.343C461.435 354.061 464.265 354.786 467.019 355.52C467.701 355.702 468.382 355.883 469.054 356.057C471.069 356.593 473.055 357.137 474.984 357.681C476.519 358.11 478.016 358.548 479.494 358.985C480.971 359.422 482.42 359.859 483.84 360.296C484.752 360.577 485.654 360.873 486.556 361.154C487.851 361.566 489.128 361.979 490.375 362.391C490.759 362.515 491.133 362.647 491.507 362.771C491.747 362.861 491.977 362.935 492.208 363.018C492.659 363.175 493.119 363.323 493.561 363.48C494.012 363.628 494.453 363.785 494.895 363.95C495.326 364.098 495.768 364.255 496.19 364.412C496.622 364.56 497.044 364.717 497.466 364.882C497.821 365.006 498.167 365.138 498.502 365.27C499.184 365.525 499.865 365.781 500.527 366.045C500.853 366.177 501.18 366.301 501.506 366.433L502.254 366.73C502.36 366.779 502.465 366.82 502.571 366.862C502.811 366.961 503.06 367.068 503.3 367.167C503.857 367.389 504.404 367.629 504.941 367.851C505.661 368.165 506.361 368.478 507.033 368.783C507.714 369.097 508.376 369.41 509.01 369.715C509.115 369.765 509.211 369.814 509.317 369.864C509.461 369.93 509.605 370.004 509.749 370.07C510.238 370.309 510.708 370.557 511.178 370.796C512.099 371.282 512.973 371.761 513.788 372.239C513.971 372.346 514.143 372.454 514.326 372.553C514.93 372.924 515.506 373.287 516.043 373.658C516.043 373.666 516.043 373.666 516.053 373.666C516.235 373.782 516.408 373.905 516.581 374.021C516.725 374.136 516.878 374.235 517.022 374.351C517.521 374.722 517.981 375.076 518.404 375.439C518.545 375.551 518.68 375.67 518.807 375.794C518.863 375.834 518.914 375.878 518.96 375.926C519.152 376.091 519.325 376.256 519.488 376.421C519.513 376.444 519.536 376.469 519.555 376.495C519.785 376.726 519.997 376.957 520.198 377.188C520.294 377.304 520.4 377.419 520.486 377.534C520.601 377.675 520.716 377.823 520.812 377.963C520.899 378.079 520.975 378.203 521.052 378.318C521.256 378.615 521.429 378.927 521.57 379.25C521.678 379.469 521.765 379.695 521.829 379.926C521.902 380.145 521.957 380.369 521.993 380.595V380.595Z" fill="#2F2E41"/>
<path opacity="0.2" d="M521.993 380.595C521.983 382.038 521.964 384.059 521.887 386.558C521.877 386.904 521.858 387.259 521.849 387.622C521.753 391.127 521.609 395.457 521.407 400.349C521.398 400.645 521.388 400.934 521.369 401.231C521.1 407.203 520.678 414.156 519.949 425.167C518.596 445.507 516.235 427.963 513.865 435.098C507.282 431.617 500.067 427.971 492.352 424.227C490.96 423.55 489.556 422.871 488.139 422.189C472.71 414.791 455.476 407.038 437.484 399.359C436.774 399.054 436.054 398.748 435.344 398.452C394.131 380.941 349.147 363.909 312.703 352.543C305.67 350.349 298.953 348.369 292.639 346.629C279.339 342.975 267.844 340.418 258.997 339.313C249.785 338.158 243.423 338.571 240.851 340.954C240.755 339.272 240.656 337.661 240.554 336.121C240.516 335.61 240.477 335.107 240.439 334.612C240.498 334.476 240.575 334.346 240.649 334.216C240.66 334.197 240.668 334.177 240.679 334.158C240.697 334.115 240.72 334.074 240.746 334.034C240.774 333.983 240.806 333.934 240.842 333.886C240.873 333.827 240.912 333.772 240.957 333.721C241.043 333.605 241.139 333.482 241.245 333.366C241.322 333.28 241.406 333.197 241.494 333.119C241.524 333.079 241.559 333.043 241.6 333.012C241.638 332.979 241.677 332.937 241.725 332.896C241.745 332.87 241.771 332.848 241.801 332.83C241.877 332.755 241.961 332.686 242.051 332.624C242.393 332.353 242.759 332.105 243.145 331.882C243.279 331.807 243.423 331.733 243.557 331.651C244.524 331.153 245.543 330.734 246.599 330.397C246.964 330.282 247.328 330.174 247.722 330.059C247.866 330.026 248 329.985 248.144 329.943C248.355 329.886 248.566 329.828 248.787 329.787C249.881 329.506 251.061 329.267 252.337 329.044C252.721 328.978 253.124 328.912 253.527 328.855C253.853 328.805 254.189 328.756 254.525 328.706C257.375 328.319 260.609 328.03 264.178 327.84C264.514 327.824 264.85 327.807 265.186 327.791C265.579 327.774 265.973 327.758 266.376 327.741C266.712 327.725 267.057 327.716 267.402 327.708C267.738 327.692 268.084 327.683 268.439 327.675C269.408 327.65 270.406 327.626 271.423 327.609C274.321 327.568 277.372 327.584 280.577 327.642C282.064 327.667 283.581 327.708 285.135 327.766C285.231 327.766 285.337 327.774 285.433 327.774C286.786 327.807 288.158 327.865 289.549 327.923C290.528 327.964 291.516 328.005 292.504 328.055C293.435 328.104 294.376 328.154 295.326 328.211C296.064 328.244 296.803 328.294 297.552 328.335C298.185 328.376 298.818 328.417 299.452 328.45C300.21 328.5 300.968 328.549 301.735 328.599C302.791 328.673 303.846 328.747 304.921 328.822C305.986 328.904 307.071 328.987 308.155 329.069C309.239 329.152 310.333 329.242 311.427 329.333C311.542 329.341 311.648 329.349 311.753 329.358C312.751 329.449 313.749 329.531 314.757 329.622C320.341 330.108 326.089 330.677 332 331.329C335.531 331.717 339.107 332.132 342.728 332.574C348.226 333.243 353.811 333.968 359.434 334.744C365.066 335.527 370.731 336.355 376.427 337.226C377.867 337.449 379.306 337.672 380.755 337.903C382.521 338.183 384.286 338.469 386.052 338.76C387.165 338.942 388.278 339.123 389.391 339.313C390.715 339.536 392.049 339.759 393.373 339.981C402.096 341.466 410.77 343.049 419.233 344.707C420.625 344.979 422.016 345.26 423.398 345.532C426.161 346.085 428.899 346.646 431.612 347.215C432.36 347.371 433.099 347.528 433.838 347.685C435.69 348.081 437.523 348.477 439.336 348.873V348.881C439.442 348.897 439.547 348.922 439.653 348.947C440.977 349.235 442.292 349.524 443.597 349.821C446.677 350.514 449.706 351.212 452.684 351.916C454.66 352.394 456.618 352.865 458.546 353.343C461.435 354.069 464.265 354.795 467.019 355.52C467.701 355.702 468.382 355.883 469.054 356.057C471.069 356.601 473.045 357.143 474.984 357.681C476.519 358.11 478.016 358.548 479.494 358.985C480.971 359.422 482.42 359.859 483.84 360.296C484.762 360.577 485.664 360.865 486.556 361.146C487.861 361.558 489.128 361.97 490.375 362.391C490.759 362.515 491.133 362.647 491.507 362.771C492.208 363.001 492.889 363.241 493.561 363.48C494.012 363.628 494.453 363.785 494.895 363.95C495.326 364.098 495.768 364.255 496.19 364.412C496.622 364.56 497.044 364.717 497.466 364.882C497.821 365.006 498.167 365.138 498.503 365.27C499.184 365.525 499.865 365.781 500.527 366.045C500.853 366.177 501.18 366.301 501.506 366.433L502.254 366.73C502.36 366.779 502.465 366.82 502.571 366.862C503.387 367.191 504.173 367.521 504.941 367.851C505.661 368.165 506.361 368.478 507.033 368.783C507.829 369.146 508.587 369.501 509.317 369.864C509.461 369.93 509.605 370.004 509.749 370.07C510.238 370.309 510.708 370.557 511.178 370.796C512.099 371.282 512.973 371.761 513.788 372.239C514.594 372.718 515.343 373.188 516.043 373.658C516.043 373.666 516.043 373.666 516.053 373.666C516.389 373.897 516.715 374.128 517.022 374.351C517.521 374.722 517.982 375.076 518.404 375.439C518.545 375.551 518.68 375.67 518.807 375.794C518.863 375.834 518.914 375.878 518.96 375.926C519.162 376.116 519.363 376.305 519.555 376.495C519.786 376.726 519.997 376.957 520.198 377.188C520.294 377.303 520.4 377.419 520.486 377.534C520.601 377.675 520.716 377.823 520.812 377.963C520.899 378.079 520.975 378.203 521.052 378.318C521.256 378.615 521.429 378.927 521.57 379.25C521.675 379.47 521.762 379.696 521.829 379.926C521.902 380.145 521.957 380.369 521.993 380.595V380.595Z" fill="black"/>
<path d="M680.415 346H679.307L682.511 337.273H683.602L686.807 346H685.699L683.091 338.653H683.023L680.415 346ZM680.824 342.591H685.29V343.528H680.824V342.591Z" fill="white"/>
<g clip-path="url(#clip1_1_4)">
<path d="M236.537 181.246C198.476 180.125 146.43 188.93 132.475 223.052C126.622 237.263 126.522 256.868 142.81 266.69C161.936 278.192 185.77 273.945 208.355 273.078C209.463 281.414 213.183 290.087 216.889 297.664C218.179 300.342 222.178 300.164 224.023 297.89C227.713 293.344 229.061 287.708 230.374 282.494C231.027 279.834 233.057 275.614 232.647 272.56C233.098 272.528 233.484 272.501 233.989 272.308C263.612 261.17 307.498 266.897 310.215 232.159C312.858 199.101 271.615 182.264 236.537 181.246ZM299.499 243.475C291.257 261.409 249.806 259.012 231.415 266.115C229.463 266.88 228.794 268.391 228.954 269.738C224.302 270.747 224.121 275.515 223.38 278.756C222.681 281.68 222.058 284.755 221.041 287.753C218.509 281.243 216.293 274.606 212.51 268.707C211.638 267.358 209.532 267.768 208.572 268.829C195.33 267.31 182.635 268.052 169.266 267.482C129.62 265.899 132.937 230.492 149.966 211.465C169.455 189.704 211.906 186.125 241.613 188.046C275.35 190.258 314.132 211.605 299.499 243.475Z" fill="#3F3D56"/>
<path d="M185.553 216.943C184.365 214.779 180.583 214.368 179.067 216.722C176.153 221.266 177.541 228.066 177.561 232.925C177.556 235.591 177.5 238.469 177.51 241.343C174.256 241.991 171.051 242.427 167.718 242.872C167.567 240.74 167.352 238.613 167.201 236.481C166.955 232.997 166.897 229.447 166.844 225.949C166.802 224.437 166.888 222.915 167.103 221.384C167.46 219.112 168.148 219.69 166.458 220.489C168.584 219.45 168.496 216.373 166.115 215.653C152.049 211.632 160.609 251.215 161.417 256.227C161.996 259.844 168.434 259.388 168.37 255.735C168.375 253.068 168.191 250.468 168.003 247.817C171.234 247.745 174.521 247.565 177.797 247.228C178.128 250.079 178.774 252.803 179.984 255.278C180.44 256.239 181.544 257.206 182.911 257.318C184.278 257.43 185.755 257.274 186.801 256.52C187.541 255.998 187.557 255.317 187.202 254.871C187.767 252.794 187.108 250.802 186.818 248.523C186.376 244.112 186.253 239.627 186.197 235.188C186.326 229.692 188.368 221.969 185.553 216.943Z" fill="#3F3D56"/>
<path d="M207.995 215.877C207.923 215.777 207.787 215.682 207.715 215.583C206.536 214.464 205.291 214.239 203.563 214.518C201.518 214.872 199.397 215.074 197.28 215.329C196.217 214.934 194.754 215.298 194.305 216.271C193.387 217.015 193.275 218.173 193.789 219.025C192.299 230.889 192.974 243.175 193.677 254.936C193.814 256.86 195.762 257.872 197.897 257.877C203.403 257.958 210.619 256.611 209.764 250.923C209.51 249.164 207.168 248.075 205.174 249.157C203.68 249.995 202.687 250.588 201.547 250.93C201.464 248.845 201.381 246.76 201.362 244.671C202.271 244.711 203.176 244.7 204.02 244.744C205.838 244.825 207.035 244.374 208.045 243.101L208.106 243.044C208.702 242.322 208.599 240.866 207.907 240.236L207.839 240.189C206.664 239.122 205.411 238.793 203.623 239.128C202.858 239.287 202.024 239.398 201.191 239.51C200.989 232.991 200.593 226.487 199.243 220.206C200.791 220.149 202.405 220.087 203.9 220.19C205.653 220.275 206.915 219.82 207.861 218.551C207.918 218.443 208.039 218.329 208.096 218.221C208.635 217.608 208.554 216.464 207.995 215.877Z" fill="#3F3D56"/>
<path d="M229.72 246.741C228.017 246.444 226.264 246.359 224.507 246.222C223.54 236.204 221.981 226.071 219.797 216.243C219.219 213.567 214.777 213.881 214.582 216.613C213.87 227.586 215.756 238.688 216.525 249.556C216.632 251.064 218.012 252.273 219.78 252.566C223.311 253.1 226.575 253.496 230.057 252.414C233.603 251.327 233.192 247.332 229.72 246.741Z" fill="#3F3D56"/>
<path d="M248.099 247.687C247.283 248.059 246.605 248.525 245.916 248.835C245.178 237.494 244.75 225.975 240.619 215.136C239.82 212.997 235.604 213.766 235.827 215.997C237.145 228.238 237.299 240.456 237.91 252.746C238.02 254.306 239.389 255.359 241.164 255.756C246.425 256.951 251.191 255.726 253.204 251.245C254.435 248.546 251.419 246.146 248.099 247.687Z" fill="#3F3D56"/>
<path d="M269.779 214.849C267.073 212.27 261.98 214.355 262.3 217.05C262.171 217.059 262.107 217.064 261.913 217.078C260.107 217.153 259.362 218.512 258.663 219.607C256.399 223.269 255.488 227.776 254.602 231.706C253.173 238.026 251.716 248.529 260.229 251.793C270.074 255.591 275.67 245.056 276.284 239.107C277.121 231.732 275.883 220.636 269.779 214.849ZM267.836 241.326C267.542 242.653 265.23 247.468 263.053 245.061C259.54 241.129 262.228 232.473 263.145 228.07C263.63 225.788 264.181 223.502 264.795 221.211C264.791 221.159 264.787 221.107 264.849 221.051C266.909 224.563 267.672 228.951 268.123 232.578C268.518 235.425 268.471 238.406 267.836 241.326Z" fill="#3F3D56"/>
</g>
</g>
<defs>
<clipPath id="clip0_1_4">
<rect width="755" height="472" fill="white"/>
</clipPath>
<clipPath id="clip1_1_4">
<rect width="182" height="147" fill="white" transform="translate(124.038 173.608) rotate(-4.04853)"/>
</clipPath>
</defs>
</svg>
