<svg width="642" height="486" viewBox="0 0 642 486" fill="none" xmlns="http://www.w3.org/2000/svg">
<path d="M349.303 49.5666C357.675 49.5666 364.461 42.671 364.461 34.1648C364.461 25.6586 357.675 18.7629 349.303 18.7629C340.931 18.7629 334.145 25.6586 334.145 34.1648C334.145 42.671 340.931 49.5666 349.303 49.5666Z" fill="#6C63FF"/>
<path d="M347.801 40.0401C347.46 40.0407 347.128 39.9286 346.855 39.7208L346.838 39.7079L343.276 36.939C342.582 36.3985 342.451 35.3887 342.983 34.6837C343.515 33.9787 344.508 33.8453 345.202 34.3858L347.51 36.1837L352.962 28.9559C353.494 28.2511 354.487 28.1178 355.181 28.6581L355.181 28.6581L355.181 28.6585L355.147 28.7062L355.182 28.6585C355.875 29.1995 356.006 30.2082 355.475 30.9132L349.061 39.4109C348.761 39.8078 348.295 40.0397 347.802 40.0382L347.801 40.0401V40.0401Z" fill="white"/>
<path d="M349.303 153.688C357.675 153.688 364.461 146.792 364.461 138.286C364.461 129.78 357.675 122.884 349.303 122.884C340.931 122.884 334.145 129.78 334.145 138.286C334.145 146.792 340.931 153.688 349.303 153.688Z" fill="#6C63FF"/>
<path d="M347.801 144.161C347.46 144.162 347.128 144.05 346.855 143.842L346.838 143.829L343.276 141.06C342.582 140.52 342.451 139.51 342.983 138.805C343.515 138.1 344.508 137.967 345.202 138.507L347.51 140.305L352.962 133.077C353.494 132.372 354.487 132.239 355.181 132.779L355.181 132.779L355.181 132.78L355.147 132.827L355.182 132.78C355.875 133.321 356.006 134.329 355.475 135.034L349.061 143.532C348.761 143.929 348.295 144.161 347.802 144.159L347.801 144.161V144.161Z" fill="white"/>
<path d="M387.371 300.129C387.185 295.305 390.883 291.241 395.63 291.052C396.136 291.032 396.643 291.057 397.145 291.128L411.028 263.452L418.872 277.489L404.486 301.618C403.521 306.372 398.945 309.43 394.267 308.448C390.352 307.627 387.501 304.188 387.371 300.129L387.371 300.129V300.129Z" fill="#FFB7B7"/>
<path d="M452.094 474.397L441.199 474.397L436.016 431.698L452.096 431.699L452.094 474.397Z" fill="#FFB7B7"/>
<path d="M454.872 485.128L419.742 485.127V484.675C419.743 477.002 425.865 470.783 433.416 470.782H433.417L454.873 470.783L454.872 485.128V485.128Z" fill="#2F2E41"/>
<path d="M511.155 474.397L500.26 474.397L495.077 431.698L511.157 431.699L511.155 474.397Z" fill="#FFB7B7"/>
<path d="M513.933 485.128L478.804 485.127V484.675C478.804 477.002 484.926 470.783 492.477 470.782H492.478L513.934 470.783L513.933 485.128V485.128Z" fill="#2F2E41"/>
<path d="M404.105 276.042L399.349 284.097C399.349 284.097 407.276 284.097 408.861 296.178L415.203 288.124L404.105 276.042V276.042Z" fill="#E5E5E5"/>
<path d="M487.337 259.128C487.337 259.128 500.02 292.956 502.399 313.898C504.777 334.839 508.74 390.414 508.74 390.414L516.667 462.098L494.472 465.319L484.959 392.83L463.557 321.146L458.801 392.83L454.837 458.07L434.227 458.876L432.642 391.219L423.922 305.038L428.678 263.961L487.337 259.128V259.128Z" fill="#2F2E41"/>
<path d="M471.879 156.436L479.807 162.073L490.112 267.585L425.904 269.196L434.624 195.902L442.55 174.96L448.272 167.274L471.879 156.436Z" fill="#E5E5E5"/>
<path d="M473.465 232.146L475.891 159.288C475.891 159.288 480.6 159.657 482.185 162.073C483.77 164.49 509.929 169.322 509.929 169.322L505.173 244.228C505.173 244.228 524.99 303.83 517.856 307.051C510.722 310.273 498.039 309.468 498.039 309.468L473.465 232.146V232.146Z" fill="#2F2E41"/>
<path d="M435.02 222.884L443.429 173.78L424.715 186.639L429.471 222.078L425.508 246.241C425.508 246.241 410.446 313.092 415.202 315.509C419.959 317.925 425.508 315.509 425.508 315.509L435.02 247.852V222.884V222.884Z" fill="#2F2E41"/>
<path d="M430.264 185.028L424.715 186.639L422.337 218.856L418.373 247.047L399.349 281.68C399.349 281.68 408.861 275.237 412.824 293.762L433.776 256.698L430.264 185.028Z" fill="#2F2E41"/>
<path d="M473.381 293.523C474.12 288.755 478.524 285.498 483.217 286.249C483.718 286.329 484.21 286.453 484.689 286.622L503.595 262.211L508.609 277.528L489.886 298.36C488.031 302.833 482.958 304.931 478.556 303.045C474.873 301.468 472.734 297.531 473.381 293.523V293.523Z" fill="#FFB7B7"/>
<path d="M505.569 284.902L498.435 293.762L488.923 276.848L492.886 269.599L505.569 284.902Z" fill="#E5E5E5"/>
<path d="M503.984 172.141L510.326 168.919C510.326 168.919 515.082 175.363 515.874 181.001C516.667 186.639 520.631 193.888 520.631 197.915C520.631 201.942 531.728 239.798 531.728 239.798L506.362 292.151C506.362 292.151 500.813 272.82 488.923 271.21L508.74 243.019L497.642 222.884L503.984 172.141V172.141Z" fill="#2F2E41"/>
<path d="M641.199 485.625H336.179C335.737 485.625 335.379 485.261 335.379 484.811C335.379 484.362 335.737 483.998 336.179 483.998H641.199C641.642 483.998 642 484.362 642 484.811C642 485.261 641.642 485.625 641.199 485.625V485.625Z" fill="#CBCBCB"/>
<path d="M42.1727 126.714C40.6002 126.714 39.3255 128.009 39.3255 129.607C39.3255 131.205 40.6002 132.5 42.1727 132.5H250.05C251.622 132.5 252.897 131.205 252.897 129.607C252.897 128.009 251.622 126.714 250.05 126.714H42.1727Z" fill="#6C63FF"/>
<path d="M42.1727 144.072C40.6002 144.069 39.3228 145.361 39.3195 146.959C39.3162 148.556 40.5882 149.854 42.1607 149.858H173.583C175.155 149.858 176.43 148.563 176.43 146.965C176.43 145.367 175.155 144.072 173.583 144.072H42.1727V144.072Z" fill="#6C63FF"/>
<path d="M292.211 172.451H0V104.121H292.211V172.451ZM4.80346 167.57H287.407V109.002H4.80346V167.57Z" fill="#E5E5E5"/>
<path d="M42.1727 230.835C40.6002 230.835 39.3255 232.131 39.3255 233.728C39.3255 235.326 40.6002 236.621 42.1727 236.621H250.05C251.622 236.621 252.897 235.326 252.897 233.728C252.897 232.131 251.622 230.835 250.05 230.835H42.1727Z" fill="#E6E6E6"/>
<path d="M42.1727 248.193C40.6002 248.19 39.3228 249.482 39.3195 251.08C39.3162 252.678 40.5882 253.976 42.1606 253.979H173.583C175.155 253.979 176.43 252.684 176.43 251.086C176.43 249.488 175.155 248.193 173.583 248.193H42.1727V248.193Z" fill="#E6E6E6"/>
<path d="M292.211 276.572H0V208.242H292.211V276.572ZM4.80346 271.691H287.407V213.123H4.80346V271.691Z" fill="#E5E5E5"/>
<path d="M44.5744 22.593C43.0019 22.5959 41.7295 23.8935 41.7324 25.4912C41.7353 27.0848 43.006 28.376 44.5744 28.3789H252.452C254.024 28.376 255.297 27.0784 255.294 25.4807C255.291 23.8871 254.02 22.5959 252.452 22.593H44.5744V22.593Z" fill="#6C63FF"/>
<path d="M44.5744 39.9507C43.002 39.9473 41.7245 41.2398 41.7212 42.8375C41.7179 44.4352 42.99 45.7332 44.5624 45.7366H175.985C177.557 45.7395 178.834 44.4466 178.837 42.8489C178.84 41.2512 177.567 39.9536 175.995 39.9507C175.992 39.9506 175.988 39.9506 175.985 39.9507H44.5744V39.9507Z" fill="#6C63FF"/>
<path d="M294.612 68.3296H2.40173V0H294.612V68.3296ZM7.2052 63.4489H289.809V4.88068H7.2052V63.4489Z" fill="#E5E5E5"/>
<path d="M591.825 486V427.155C591.825 427.155 614.395 468.874 591.825 486Z" fill="#F1F1F1"/>
<path d="M593.219 485.99L550.557 446.195C550.557 446.195 596.066 457.514 593.219 485.99Z" fill="#F1F1F1"/>
<path d="M387.731 298.356C396.102 298.356 402.889 291.46 402.889 282.954C402.889 274.448 396.102 267.552 387.731 267.552C379.359 267.552 372.573 274.448 372.573 282.954C372.573 291.46 379.359 298.356 387.731 298.356Z" fill="#6C63FF"/>
<path d="M386.229 288.829C385.888 288.83 385.556 288.718 385.283 288.51L385.266 288.497L381.704 285.728C381.01 285.188 380.878 284.178 381.41 283.473C381.942 282.768 382.936 282.635 383.63 283.175L385.937 284.973L391.39 277.745C391.922 277.04 392.915 276.907 393.609 277.447L393.609 277.448L393.575 277.495L393.61 277.448C394.303 277.989 394.434 278.997 393.903 279.702L387.489 288.2C387.188 288.597 386.723 288.829 386.23 288.827L386.229 288.829V288.829Z" fill="white"/>
<path d="M449.594 157.771C461.577 157.771 471.292 147.9 471.292 135.724C471.292 123.548 461.577 113.677 449.594 113.677C437.61 113.677 427.896 123.548 427.896 135.724C427.896 147.9 437.61 157.771 449.594 157.771Z" fill="#FFB6B6"/>
<path d="M468.548 152.663C468.548 152.663 474.974 139.438 474.86 134.39C474.745 129.341 471.234 116.349 469.752 115.492C468.271 114.635 452.292 106.392 447.961 108.871C443.631 111.349 436.01 119.826 427.791 122.12C425.466 122.768 427.496 134.904 427.496 134.904L437.114 133.49C437.114 133.49 447.142 124.341 447.576 130.571C448.01 136.801 457.309 134.206 457.309 134.206L457.423 139.255L461.23 139.463L462.278 134.09C462.278 134.09 463.988 145.044 461.778 150.741C459.568 156.439 468.548 152.663 468.548 152.663V152.663Z" fill="#2F2E41"/>
</svg>
