<svg width="887" height="548" viewBox="0 0 887 548" fill="none" xmlns="http://www.w3.org/2000/svg">
<g clip-path="url(#clip0_1_2)">
<path d="M363.669 321.855C363.669 340.258 293.268 382.089 200.454 382.089C107.639 382.089 27.189 340.258 27.189 321.855C27.189 317.252 35.0694 322.968 43.5663 318.986C68.3032 307.375 127.288 315.934 194.234 315.456C196.3 315.438 198.373 315.429 200.454 315.429C293.268 315.429 363.669 303.451 363.669 321.855Z" fill="#3F3D56"/>
<path opacity="0.1" d="M363.669 321.855C363.669 340.258 293.268 382.089 200.454 382.089C107.639 382.089 27.189 340.258 27.189 321.855C27.189 317.252 35.0694 322.968 43.5663 318.986C68.3032 307.375 127.288 315.934 194.234 315.456C196.3 315.438 198.373 315.429 200.454 315.429C293.268 315.429 363.669 303.451 363.669 321.855Z" fill="black"/>
<path d="M363.297 321.51C363.297 339.914 288.057 354.84 195.243 354.84C102.428 354.84 27.189 339.914 27.189 321.51C27.189 316.907 31.885 312.529 40.382 308.548C65.1189 296.936 122.077 288.685 189.023 288.207C191.089 288.19 193.162 288.181 195.243 288.18C288.057 288.18 363.297 303.107 363.297 321.51Z" fill="#3F3D56"/>
<path opacity="0.1" d="M191.022 288.891C183.884 300.101 174.203 309.609 162.707 316.702C151.21 323.795 138.196 328.288 124.639 329.846C111.083 331.404 97.3361 329.985 84.43 325.696C71.5238 321.408 59.7931 314.36 50.1173 305.082C73.5667 295.839 127.56 289.271 191.022 288.891Z" fill="black"/>
<path d="M115.776 316.118C161.823 316.118 199.151 277.593 199.151 230.069C199.151 182.545 161.823 144.02 115.776 144.02C69.7285 144.02 32.4 182.545 32.4 230.069C32.4 277.593 69.7285 316.118 115.776 316.118Z" fill="#3F3D56"/>
<path d="M206.482 96.7433V116.915L195.729 128.909C195.729 128.909 191.201 127.274 191.201 116.37L189.503 100.56L206.482 96.7433Z" fill="#FFB9B9"/>
<path d="M195.729 116.915C195.729 116.915 213.274 105.466 213.84 101.65C214.406 97.8337 239.309 80.3878 235.347 91.2915C231.385 102.195 218.934 107.102 218.934 107.102C218.934 107.102 209.312 132.18 200.823 131.635C192.333 131.09 192.333 120.731 195.729 116.915Z" fill="#FFB9B9"/>
<path d="M185.541 239.581L183.843 249.395L192.899 247.214V239.581H185.541Z" fill="#FFB9B9"/>
<path d="M187.239 245.033C187.239 245.033 197.706 239.06 198.132 241.774C198.559 244.488 203.087 254.847 205.35 255.937C207.614 257.027 210.444 269.021 205.35 268.476C201.405 268.054 186.935 260.764 180.61 257.498C179.831 257.094 179.243 256.417 178.967 255.608C178.691 254.799 178.747 253.918 179.124 253.147C179.495 252.486 179.751 251.771 179.881 251.03C179.881 249.94 187.239 245.033 187.239 245.033Z" fill="#2F2E41"/>
<path d="M182.145 134.361C182.145 134.361 223.462 152.897 219.5 167.072C215.538 181.247 200.823 241.217 200.823 241.217C200.823 241.217 184.409 245.033 183.277 241.217C182.145 237.401 194.031 177.976 192.899 175.795C191.767 173.614 170.826 159.44 170.826 159.44L127.811 141.994L145.923 125.638L182.145 134.361Z" fill="#2F2E41"/>
<path d="M213.274 242.853L218.368 255.392L209.312 259.208L203.652 249.395L213.274 242.853Z" fill="#FFB9B9"/>
<path d="M182.711 44.9509C182.711 44.9509 177.618 51.4931 181.579 54.7642C185.541 58.0353 182.711 70.0293 182.711 70.0293L177.618 83.6589L157.242 79.8426V57.4901L158.374 46.5864C158.374 46.5864 168.562 37.3183 169.694 30.2309C170.826 23.1435 182.711 44.9509 182.711 44.9509Z" fill="#FFB9B9"/>
<path opacity="0.1" d="M182.711 44.9509C182.711 44.9509 177.618 51.4931 181.579 54.7642C185.541 58.0353 182.711 70.0293 182.711 70.0293L177.618 83.6589L157.242 79.8426V57.4901L158.374 46.5864C158.374 46.5864 168.562 37.3183 169.694 30.2309C170.826 23.1435 182.711 44.9509 182.711 44.9509Z" fill="black"/>
<path d="M148.753 130C148.753 130 175.354 158.349 175.354 159.44C175.354 160.53 189.503 182.882 189.503 182.882L217.236 242.307C217.236 242.307 206.482 256.482 201.955 255.392C197.427 254.302 165.166 191.06 165.166 191.06C165.166 191.06 159.506 176.885 144.225 173.614C128.943 170.343 117.058 158.894 122.718 145.81C128.377 132.726 148.753 130 148.753 130Z" fill="#2F2E41"/>
<path d="M182.711 48.7671C192.714 48.7671 200.823 40.9563 200.823 31.3212C200.823 21.6861 192.714 13.8753 182.711 13.8753C172.709 13.8753 164.6 21.6861 164.6 31.3212C164.6 40.9563 172.709 48.7671 182.711 48.7671Z" fill="#FFB9B9"/>
<path d="M182.145 59.6708C182.145 59.6708 179.881 72.2101 177.618 73.3004C175.354 74.3908 173.656 78.2071 168.562 72.7552C163.468 67.3034 158.94 56.3997 158.94 56.3997L141.395 77.1167L139.697 134.361C139.697 134.361 159.506 129.454 165.732 134.361C171.958 139.268 185.541 138.723 185.541 138.723L182.711 127.819L184.975 109.283L184.409 92.3819L183.843 80.3878L182.145 59.6708Z" fill="#F2F2F2"/>
<path d="M180.151 50.4943C180.151 50.4943 187.805 54.219 188.371 56.3997C188.937 58.5804 199.125 62.9419 199.125 62.9419C199.125 62.9419 203.086 66.7582 203.086 68.939C203.086 71.1197 189.503 96.1982 189.503 96.1982C189.503 96.1982 186.673 113.099 187.805 116.37C188.937 119.641 185.541 132.18 185.541 132.18L192.333 139.813H186.107C186.107 139.813 179.315 136.542 179.315 134.906C179.315 133.271 180.447 121.822 181.013 116.915C181.579 112.008 181.579 94.5626 180.447 88.5656C179.315 82.5685 179.881 66.7582 179.881 62.9419C179.881 59.1256 180.151 50.4943 180.151 50.4943Z" fill="#3F3D56"/>
<path d="M162.619 42.2159C162.619 42.2159 160.072 42.7701 152.715 44.9508C145.357 47.1316 134.037 50.4027 130.075 54.7642C127.295 57.9897 124.831 61.4574 122.718 65.1226L124.982 104.376C124.982 104.376 120.454 112.554 121.02 116.915C121.586 121.277 126.114 121.822 122.718 131.09C119.322 140.358 112.53 148.536 118.756 149.626C124.982 150.717 141.395 146.9 148.753 149.081C156.11 151.262 164.6 140.903 164.6 140.903C164.6 140.903 153.281 141.994 154.978 137.632C156.676 133.271 175.354 84.2041 171.392 73.3004C167.43 62.3968 162.619 42.2159 162.619 42.2159Z" fill="#3F3D56"/>
<path d="M200.257 66.2131L203.087 68.3938C203.087 68.3938 211.01 95.653 208.746 98.3789C206.482 101.105 188.371 107.102 187.239 103.286C186.107 99.4693 200.257 66.2131 200.257 66.2131Z" fill="#3F3D56"/>
<path d="M116.492 85.2945C116.492 85.2945 108.002 108.737 108.002 115.28C108.002 121.822 109.134 159.985 109.134 159.985C109.134 159.985 109.7 176.34 121.586 169.798C133.471 163.256 121.586 158.894 121.586 158.894C121.586 158.894 122.152 115.825 126.68 109.828C131.207 103.831 132.905 95.1078 132.905 95.1078L116.492 85.2945Z" fill="#FFB9B9"/>
<path d="M209.312 254.847C209.312 254.847 217.802 250.485 219.5 253.756C221.198 257.027 230.253 275.019 229.121 277.199C227.99 279.38 221.764 288.103 214.406 285.922C207.048 283.742 206.482 272.293 206.482 272.293L205.916 259.208L209.312 254.847Z" fill="#2F2E41"/>
<path d="M186.258 27.1072C185.01 27.6728 183.53 28.0108 182.746 29.1035C182.165 29.9131 182.108 30.9653 181.684 31.8608C181.221 32.7475 180.425 33.4309 179.457 33.7718C178.49 34.1126 177.424 34.0852 176.476 33.6952C176.245 32.6092 175.589 31.6503 174.645 31.0163C174.168 30.7142 173.603 30.5674 173.033 30.5975C172.463 30.6277 171.918 30.8332 171.478 31.1838C170.312 32.2551 170.725 34.1232 170.18 35.5846C169.669 36.6126 168.966 37.5413 168.106 38.3241C166.868 39.7009 165.881 41.3156 164.389 42.4357C162.897 43.5557 160.635 44.0411 159.153 42.9092C157.906 41.9574 157.648 40.2013 157.951 38.6973C158.253 37.1933 159.004 35.8083 159.427 34.3315C160.803 29.533 158.61 24.41 159.288 19.475C160.158 13.1516 165.737 8.15669 171.965 5.98901C174.557 4.97242 177.394 4.68285 180.149 5.15375C182.997 5.76634 185.43 7.51298 188.158 8.51192C191.075 9.58018 194.247 9.76671 197.3 10.3912C200.353 11.0157 203.494 12.2232 205.265 14.6981C206.501 16.4242 206.926 18.5679 207.95 20.4181C209.128 22.53 211.038 24.1776 213.346 25.075L210.119 24.8978C210.66 26.2853 211.542 27.5257 212.69 28.5125C211.177 28.8098 209.604 28.6095 208.223 27.9437C208.248 28.5826 208.408 29.2098 208.695 29.7866C208.981 30.3633 209.388 30.8773 209.888 31.297C207.405 31.2249 204.787 31.1147 202.688 29.8334C201.661 29.2058 200.823 28.3317 199.855 27.6204C197.794 26.1041 195.236 25.3843 192.743 24.6951C191.434 24.3332 189.858 23.8299 188.674 24.6409C187.688 25.3163 187.533 26.529 186.258 27.1072Z" fill="#2F2E41"/>
<path d="M131.207 58.5804L122.718 65.1227L111.398 90.2011C111.398 90.2011 127.246 102.195 131.207 100.56C135.169 98.9241 141.961 70.0293 141.961 70.0293L131.207 58.5804Z" fill="#3F3D56"/>
<path d="M258.539 88.5049L222.816 107.406C222.609 107.539 222.374 107.626 222.129 107.662C221.883 107.697 221.632 107.681 221.393 107.613C221.155 107.545 220.935 107.428 220.748 107.269C220.562 107.111 220.414 106.915 220.315 106.695L211.564 89.0755C211.398 88.5732 211.425 88.0303 211.64 87.5455C211.855 87.0608 212.243 86.6664 212.734 86.4343L242.393 71.7085C242.758 71.4968 243.192 71.4224 243.611 71.4995C244.029 71.5766 244.404 71.7998 244.662 72.1263L259.477 85.5708C259.623 85.8212 259.715 86.0975 259.746 86.383C259.778 86.6685 259.749 86.9572 259.661 87.2316C259.573 87.506 259.429 87.7603 259.236 87.9792C259.043 88.1981 258.806 88.3769 258.539 88.5049V88.5049Z" fill="#2F2E41"/>
<path d="M256.155 85.9021L222.666 104.34L213.754 88.8686L242.483 73.8193L256.155 85.9021Z" fill="#6C63FF"/>
<path d="M228.057 80.5725C228.231 80.3711 228.228 80.0917 228.05 79.9485C227.871 79.8052 227.586 79.8523 227.411 80.0537C227.237 80.2551 227.24 80.5345 227.418 80.6777C227.596 80.821 227.882 80.7739 228.057 80.5725Z" fill="#F2F2F2"/>
<path d="M240.384 96.3152C240.5 96.1808 240.498 95.9944 240.379 95.8988C240.26 95.8032 240.07 95.8347 239.953 95.9691C239.837 96.1035 239.839 96.2899 239.958 96.3855C240.077 96.4811 240.267 96.4496 240.384 96.3152Z" fill="#F2F2F2"/>
<path d="M72.2379 315.284C72.2379 327.774 64.5311 332.134 55.0229 332.134C54.8026 332.134 54.5824 332.131 54.3637 332.126C53.9233 332.117 53.4859 332.097 53.055 332.068C44.4736 331.484 37.8079 326.899 37.8079 315.284C37.8079 303.267 53.7506 288.101 54.9516 286.976L54.9532 286.974C54.9991 286.93 55.0229 286.909 55.0229 286.909C55.0229 286.909 72.2379 302.797 72.2379 315.284Z" fill="#6C63FF"/>
<path d="M54.3954 330.223L60.692 321.749L54.3796 331.154L54.3637 332.126C53.9232 332.117 53.4859 332.097 53.055 332.068L53.7331 319.575L53.7284 319.477L53.7395 319.46L53.8044 318.279L47.4761 308.851L53.8234 317.394L53.8393 317.644L54.351 308.204L48.9338 298.462L54.4176 306.548L54.9515 286.976L54.9531 286.909V286.974L54.8644 302.408L60.2579 296.289L54.8422 303.737L54.6996 312.189L59.7366 304.077L54.679 313.433L54.5998 318.132L61.9089 306.841L54.5713 319.772L54.3954 330.223Z" fill="#3F3D56"/>
<path d="M312.687 289.47C312.687 301.959 304.98 306.319 295.472 306.319C295.252 306.319 295.032 306.316 294.813 306.312C294.373 306.302 293.935 306.283 293.504 306.254C284.923 305.669 278.257 301.084 278.257 289.47C278.257 277.452 294.2 262.286 295.401 261.161L295.402 261.16C295.448 261.115 295.472 261.094 295.472 261.094C295.472 261.094 312.687 276.982 312.687 289.47Z" fill="#6C63FF"/>
<path d="M294.845 304.408L301.141 295.935L294.829 305.339L294.813 306.312C294.373 306.302 293.935 306.283 293.504 306.254L294.182 293.76L294.178 293.662L294.189 293.645L294.254 292.464L287.925 283.037L294.273 291.579L294.289 291.829L294.8 282.389L289.383 272.648L294.867 280.733L295.401 261.161L295.402 261.094V261.16L295.314 276.593L300.707 270.474L295.292 277.922L295.149 286.374L300.186 278.263L295.128 287.618L295.049 292.318L302.358 281.027L295.021 293.957L294.845 304.408Z" fill="#3F3D56"/>
<path opacity="0.3" d="M431.172 265.066C444.199 265.066 454.759 254.893 454.759 242.345C454.759 229.797 444.199 219.624 431.172 219.624C418.145 219.624 407.584 229.797 407.584 242.345C407.584 254.893 418.145 265.066 431.172 265.066Z" fill="#6C63FF"/>
<path opacity="0.3" d="M526.308 265.066C539.335 265.066 549.895 254.893 549.895 242.345C549.895 229.797 539.335 219.624 526.308 219.624C513.281 219.624 502.72 229.797 502.72 242.345C502.72 254.893 513.281 265.066 526.308 265.066Z" fill="#6C63FF"/>
<path opacity="0.3" d="M621.444 265.066C634.471 265.066 645.032 254.893 645.032 242.345C645.032 229.797 634.471 219.624 621.444 219.624C608.417 219.624 597.857 229.797 597.857 242.345C597.857 254.893 608.417 265.066 621.444 265.066Z" fill="#6C63FF"/>
<path opacity="0.3" d="M463.015 282.107H398.542V288.165H463.015V282.107Z" fill="#6C63FF"/>
<path opacity="0.3" d="M558.937 282.107H494.465V288.165H558.937V282.107Z" fill="#6C63FF"/>
<path d="M654.86 282.107H590.387V288.165H654.86V282.107Z" fill="#6C63FF"/>
<path d="M887 484.381C887 503.819 812.644 548 714.615 548C616.586 548 531.615 503.819 531.615 484.381C531.615 479.52 539.938 485.557 548.912 481.352C575.039 469.088 637.338 478.128 708.046 477.624C710.227 477.605 712.417 477.595 714.615 477.595C812.644 477.595 887 464.944 887 484.381Z" fill="#3F3D56"/>
<path opacity="0.1" d="M887 484.381C887 503.819 812.644 548 714.615 548C616.586 548 531.615 503.819 531.615 484.381C531.615 479.52 539.938 485.557 548.912 481.352C575.039 469.088 637.338 478.128 708.046 477.624C710.227 477.605 712.417 477.595 714.615 477.595C812.644 477.595 887 464.944 887 484.381Z" fill="black"/>
<path d="M886.607 484.018C886.607 503.455 807.14 519.22 709.111 519.22C611.082 519.22 531.615 503.455 531.615 484.018C531.615 479.156 536.575 474.532 545.549 470.327C571.676 458.063 631.834 449.348 702.542 448.844C704.723 448.825 706.913 448.815 709.111 448.815C807.14 448.815 886.607 464.58 886.607 484.018Z" fill="#3F3D56"/>
<path d="M718.306 452.758C741.772 452.758 760.795 431.976 760.795 406.341C760.795 380.706 741.772 359.924 718.306 359.924C694.84 359.924 675.816 380.706 675.816 406.341C675.816 431.976 694.84 452.758 718.306 452.758Z" fill="#36334A"/>
<path d="M736.972 322.355L673.115 324.248C673.115 324.248 607.605 383.469 654.27 399.557C654.27 399.557 720.762 402.319 734.516 391.909C734.516 391.909 751.708 326.613 736.972 322.355ZM734.024 339.862L665.747 344.12C665.747 344.12 670.659 328.033 690.307 328.033C709.955 328.033 732.06 323.774 734.024 333.711C735.989 343.647 734.024 339.862 734.024 339.862Z" fill="#3F3D56"/>
<path d="M802.302 359.735L718.306 356.896L737.954 276.932C737.954 276.932 816.547 271.254 814.582 290.653C812.617 310.053 802.302 359.735 802.302 359.735Z" fill="#36334A"/>
<path d="M721.213 397.959C721.213 397.959 670.659 406.577 652.484 381.027C634.31 355.476 721.253 369.198 721.253 369.198L728.621 388.597L721.213 397.959Z" fill="#36334A"/>
<path d="M706.026 506.414C718.776 506.414 729.112 496.458 729.112 484.176C729.112 471.894 718.776 461.937 706.026 461.937C693.275 461.937 682.939 471.894 682.939 484.176C682.939 496.458 693.275 506.414 706.026 506.414Z" fill="#36334A"/>
<path d="M708.236 500.263C716.239 500.263 722.727 493.06 722.727 484.176C722.727 475.291 716.239 468.088 708.236 468.088C700.233 468.088 693.745 475.291 693.745 484.176C693.745 493.06 700.233 500.263 708.236 500.263Z" fill="#3F3D56"/>
<path d="M832.266 274.566C832.266 274.566 813.109 264.156 812.126 288.761L795.916 403.265H802.793L821.459 280.717C821.459 280.717 830.792 282.136 832.266 282.136C833.739 282.136 832.266 274.566 832.266 274.566Z" fill="#3F3D56"/>
<path d="M851.354 287.2C851.179 287.808 850.871 288.372 850.451 288.856C850.03 289.34 849.508 289.731 848.917 290.004C848.327 290.278 847.683 290.426 847.028 290.44C846.374 290.454 845.724 290.333 845.122 290.085L822.899 280.933L826.93 272.379L848.832 281.988C849.828 282.425 850.629 283.19 851.092 284.146C851.554 285.101 851.647 286.184 851.354 287.2V287.2Z" fill="#36334A"/>
<path d="M716.341 395.222C716.341 395.222 680.974 391.436 671.15 424.084C661.326 456.732 662.308 481.81 653.958 479.917C645.607 478.024 627.924 471.4 627.924 471.4L629.398 481.337C629.398 481.337 660.343 496.478 665.256 480.39C670.168 464.303 673.115 405.158 701.114 406.577C729.112 407.997 734.024 405.158 734.024 405.158L716.341 395.222Z" fill="#3F3D56"/>
<path d="M649.046 379.607C649.046 379.607 621.538 382.919 610.732 402.319C599.925 421.719 594.522 456.732 594.522 456.732H604.837C604.837 456.732 610.732 387.178 641.678 390.963L649.046 379.607Z" fill="#3F3D56"/>
<path d="M630.38 487.961L586.662 461.937C586.662 461.937 584.206 452.474 612.205 448.689C612.205 448.689 665.141 466.522 660.041 473.219C654.94 479.917 637.748 490.327 630.38 487.961Z" fill="#36334A"/>
<path d="M711.544 338.389C712.891 339.801 737.663 362.504 737.663 362.504C737.663 362.504 735.201 378.35 708.697 380.317L664.522 383.594C664.522 383.594 656.172 413.11 646.245 422.542C636.318 431.974 640.873 432.501 637.148 437.098C633.422 441.695 638.651 442.928 632.996 443.374C627.34 443.821 615.655 437.234 615.528 432.14C615.401 427.045 618.7 424.127 620.167 422.83C621.633 421.533 625.351 409.131 627.581 406.508C629.81 403.885 638.25 372.338 638.25 372.338C638.25 372.338 646.673 357.075 658.351 355.858C670.029 354.64 683.021 349.169 683.021 349.169" fill="#2F2E41"/>
<path opacity="0.1" d="M711.544 338.389C712.891 339.801 737.663 362.504 737.663 362.504C737.663 362.504 735.201 378.35 708.697 380.317L664.522 383.594C664.522 383.594 656.172 413.11 646.245 422.542C636.318 431.974 640.873 432.501 637.148 437.098C633.422 441.695 638.651 442.928 632.996 443.374C627.34 443.821 615.655 437.234 615.528 432.14C615.401 427.045 618.7 424.127 620.167 422.83C621.633 421.533 625.351 409.131 627.581 406.508C629.81 403.885 638.25 372.338 638.25 372.338C638.25 372.338 646.673 357.075 658.351 355.858C670.029 354.64 683.021 349.169 683.021 349.169" fill="black"/>
<path d="M668.694 262.616C668.694 262.616 659.398 238.284 653.035 246.037C646.672 253.79 663.273 266.522 663.273 266.522L668.694 262.616Z" fill="#A0616A"/>
<path d="M717.666 275.318L712.373 273.161C712.373 273.161 702.657 279.485 702.017 281.539C701.377 283.592 702.763 282.874 698.947 284.68C695.131 286.487 684.705 290.86 683.32 291.579C681.934 292.298 666.243 265.556 669.995 261.717C669.995 261.717 662.972 264.156 659.774 263.231C659.774 263.231 667.756 300.51 668.971 305.562C670.186 310.614 673.021 311.21 678.308 311.395C683.595 311.58 715.702 302.507 715.702 302.507L717.666 275.318Z" fill="#575A89"/>
<path d="M634.852 435.538C634.852 435.538 634.584 440.827 635.5 441.435C636.417 442.043 642.081 454.911 633.357 456.152C624.633 457.394 619.842 455.778 617.732 456.461C615.623 457.144 580.846 454.381 581.114 449.092C581.381 443.803 598.77 445.185 598.77 445.185C598.77 445.185 615.993 437.346 619.218 432.457C622.443 427.568 634.852 435.538 634.852 435.538Z" fill="#2F2E41"/>
<path opacity="0.1" d="M634.852 435.538C634.852 435.538 634.584 440.827 635.5 441.435C636.417 442.043 642.081 454.911 633.357 456.152C624.633 457.394 619.842 455.778 617.732 456.461C615.623 457.144 580.846 454.381 581.114 449.092C581.381 443.803 598.77 445.185 598.77 445.185C598.77 445.185 615.993 437.346 619.218 432.457C622.443 427.568 634.852 435.538 634.852 435.538Z" fill="black"/>
<path d="M652.796 463.396C652.796 463.396 647.507 485.594 643.627 485.368C639.747 485.142 612.356 472.301 608.986 469.758C604.658 466.492 604.829 460.722 609.796 461.934C614.764 463.146 628.813 462.059 631.201 459.615L637.341 453.332L652.796 463.396Z" fill="#2F2E41"/>
<path d="M707.021 340.065C708.471 341.38 752.554 377.403 752.554 377.403C752.554 377.403 751.295 393.379 725.009 397.196L681.198 403.558C681.198 403.558 675.098 433.58 665.909 443.683C656.72 453.786 661.303 453.991 657.934 458.837C654.565 463.684 659.874 464.546 654.267 465.388C648.66 466.229 636.509 460.478 635.998 455.406C635.487 450.334 638.557 447.192 639.921 445.796C641.286 444.4 644.058 431.771 646.084 428.998C648.11 426.226 654.146 394.171 654.146 394.171C654.146 394.171 661.396 378.36 672.951 376.328C684.505 374.296 697.051 367.929 697.051 367.929" fill="#2F2E41"/>
<path d="M747.6 262.024C759.144 262.024 768.503 253.009 768.503 241.889C768.503 230.769 759.144 221.754 747.6 221.754C736.056 221.754 726.697 230.769 726.697 241.889C726.697 253.009 736.056 262.024 747.6 262.024Z" fill="#A0616A"/>
<path d="M758.557 254.458C758.557 254.458 755.422 266.758 760.196 273.063C764.971 279.368 728.261 276.366 728.261 276.366C728.261 276.366 738.197 256.407 734.531 251.765C730.864 247.124 758.557 254.458 758.557 254.458Z" fill="#A0616A"/>
<path d="M711.632 273.798C707.198 278.336 708.709 304.067 708.709 304.067L711.542 327.046C711.542 327.046 708.152 331.215 709.26 332.878C710.369 334.541 712.181 336.184 708.684 336.964C705.188 337.745 697.129 338.996 699.709 342.652C700.551 343.688 701.453 344.677 702.411 345.615C703.233 346.453 704.21 347.425 705.318 348.509C707.911 351.031 711.209 354.133 714.867 357.405C715.903 358.338 716.966 359.279 718.054 360.228C732.012 372.391 749.368 385.265 752.959 379.087C758.972 368.737 763.151 367.259 762.874 358.449C762.598 349.64 770.339 327.031 770.339 327.031C770.339 327.031 779.339 288.446 766.656 276.945L764.673 273.889C763.752 272.468 762.391 271.363 760.782 270.728C759.173 270.094 757.397 269.964 755.707 270.355C749.516 271.78 740.026 273.748 735.914 273.43C729.562 272.937 730.954 270.421 730.954 270.421C730.954 270.421 716.067 269.26 711.632 273.798Z" fill="#575A89"/>
<path d="M692.033 356.102C692.033 356.102 666.173 362.281 669.966 370.988C673.76 379.695 696.146 363.783 696.146 363.783L692.033 356.102Z" fill="#A0616A"/>
<path d="M759.168 249.256C758.654 248.655 759.163 247.777 759.611 247.129C762.011 243.657 762.469 238.717 759.829 235.411C758.788 234.18 757.486 233.177 756.011 232.469C753.94 231.411 751.679 230.743 749.348 230.499C748.108 230.481 746.882 230.249 745.728 229.812C744.999 229.456 741.559 228.295 740.821 227.957C739.197 227.214 736.939 227.535 735.899 226.123C734.904 224.772 735.833 222.922 736.8 221.552C739.002 218.431 744.571 215.845 748.395 215.026C751.296 214.404 754.325 215.278 757.014 216.498C760.114 217.98 763.055 219.752 765.794 221.79C769.556 224.474 773.262 227.449 775.521 231.399C777.78 235.349 778.325 240.494 775.772 244.274C775.241 245.062 774.591 245.773 774.093 246.581C772.878 248.551 772.659 250.935 771.801 253.072C771.163 254.634 770.191 256.05 768.95 257.228C767.708 258.407 766.224 259.321 764.593 259.913C761.979 260.844 758.764 261.102 757.219 263.336L756.498 258.677C756.31 258.089 756.337 257.457 756.575 256.886C756.812 256.316 757.246 255.841 757.803 255.54L761.505 252.536C762.243 252.053 762.804 251.357 763.106 250.548C763.907 247.33 760.027 250.257 759.168 249.256Z" fill="#2F2E41"/>
<path opacity="0.1" d="M722.094 337.931L705.318 348.509C708.645 351.749 713.138 355.942 718.054 360.228C722.71 357.814 727.459 355.2 731.707 352.573C747.249 342.964 760.576 318.836 766.546 307.132C772.516 295.427 767.657 286.412 767.657 286.412C763.702 284.724 759.516 283.589 755.228 283.043C747.447 281.913 722.094 337.931 722.094 337.931Z" fill="black"/>
<path opacity="0.1" d="M719.877 334.604L702.411 345.615C703.233 346.453 704.21 347.425 705.318 348.509C707.911 351.031 711.209 354.133 714.867 357.404C719.829 354.852 724.948 352.055 729.49 349.246C745.032 339.637 758.359 315.509 764.329 303.805C770.3 292.1 754.236 296.298 754.236 296.298C754.236 296.298 762.571 292.664 754.79 291.534C747.009 290.404 719.877 334.604 719.877 334.604Z" fill="black"/>
<path d="M766.889 284.399C766.889 284.399 771.749 293.415 765.779 305.119C759.808 316.824 746.482 340.952 730.94 350.561C715.398 360.17 693.161 369.635 693.161 369.635C693.161 369.635 691.052 358.504 687.492 357.251L721.326 335.918C721.326 335.918 746.68 279.9 754.461 281.03C758.749 281.577 762.934 282.711 766.889 284.399Z" fill="#575A89"/>
<path d="M698.167 403.265V458.625H704.552V402.319L698.167 403.265Z" fill="#3F3D56"/>
<path d="M707.499 437.333C707.499 437.333 719.779 483.702 711.92 490.327C711.92 490.327 701.605 460.991 693.745 464.776L696.201 437.333H707.499Z" fill="#36334A"/>
<path d="M802.793 336.55L738.936 338.442C738.936 338.442 682.448 391.436 729.112 407.524C729.112 407.524 786.583 416.514 800.337 406.104C800.337 406.104 817.529 340.808 802.793 336.55ZM799.846 354.057L731.568 358.315C731.568 358.315 736.48 342.228 756.129 342.228C775.777 342.228 797.881 337.969 799.846 347.906C801.811 357.842 799.846 354.057 799.846 354.057V354.057Z" fill="#3F3D56"/>
<path d="M788.303 506.414C823.705 506.414 852.405 475.062 852.405 436.386C852.405 397.711 823.705 366.359 788.303 366.359C752.9 366.359 724.2 397.711 724.2 436.386C724.2 475.062 752.9 506.414 788.303 506.414Z" fill="#36334A"/>
<path d="M791.25 488.434C817.971 488.434 839.634 465.131 839.634 436.386C839.634 407.641 817.971 384.339 791.25 384.339C764.528 384.339 742.866 407.641 742.866 436.386C742.866 465.131 764.528 488.434 791.25 488.434Z" fill="#3F3D56"/>
<path d="M803.776 435.677C803.774 434.769 803.68 433.863 803.495 432.973L839.634 415.567L837.178 410.363L800.672 427.494C800.304 427.129 799.897 426.802 799.459 426.518L799.487 426.524L810.161 375.349L800.719 375.142L794.443 425.504L795.044 425.625C794.557 425.722 794.084 425.878 793.637 426.089L762.064 394.872L757.602 400.899L790.04 429.646C789.227 431.151 788.738 432.799 788.604 434.491L742.866 452.474L741.884 460.044L789.56 440.73C790.005 441.793 790.635 442.774 791.423 443.631L776.759 491.746H782.162L794.471 445.589C795.018 445.759 795.588 445.847 796.162 445.85C797.27 445.84 798.353 445.527 799.284 444.948L824.897 477.551L832.757 472.347L802.746 440.77C803.435 439.154 803.785 437.423 803.776 435.677Z" fill="#36334A"/>
<path d="M635.4 264.746C648.427 264.746 658.988 254.573 658.988 242.025C658.988 229.477 648.427 219.304 635.4 219.304C622.373 219.304 611.813 229.477 611.813 242.025C611.813 254.573 622.373 264.746 635.4 264.746Z" fill="#6C63FF"/>
<path d="M873.984 475.192C873.984 487.681 866.277 492.042 856.769 492.042C856.549 492.042 856.328 492.039 856.11 492.034C855.669 492.025 855.232 492.005 854.801 491.976C846.22 491.392 839.554 486.807 839.554 475.192C839.554 463.175 855.496 448.008 856.697 446.884L856.699 446.882C856.745 446.838 856.769 446.816 856.769 446.816C856.769 446.816 873.984 462.705 873.984 475.192Z" fill="#6C63FF"/>
<path d="M856.141 490.131L862.438 481.657L856.125 491.062L856.11 492.034C855.669 492.025 855.232 492.005 854.801 491.976L855.479 479.482L855.474 479.385L855.485 479.368L855.55 478.187L849.222 468.759L855.569 477.301L855.585 477.552L856.097 468.112L850.68 458.37L856.164 466.456L856.697 446.884L856.699 446.816V446.882L856.61 462.315L862.004 456.197L856.588 463.645L856.446 472.097L861.483 463.985L856.425 473.341L856.346 478.04L863.655 466.749L856.317 479.679L856.141 490.131Z" fill="#3F3D56"/>
</g>
<defs>
<clipPath id="clip0_1_2">
<rect width="887" height="548" fill="white"/>
</clipPath>
</defs>
</svg>
